<?xml version="1.0" encoding="utf-8"?>
<!-- Generator: Adobe Illustrator 23.0.1, SVG Export Plug-In . SVG Version: 6.00 Build 0)  -->
<svg version="1.1" id="Calque_1" xmlns="http://www.w3.org/2000/svg" xmlns:xlink="http://www.w3.org/1999/xlink" x="0px" y="0px"
	 viewBox="0 0 1005 356" style="enable-background:new 0 0 1005 356;" xml:space="preserve">
<style type="text/css">
	.st0{fill:#1C3355;}
	.st1{fill:#B4B4B4;}
	.st2{fill:#CCCCCC;}
</style>
<g>
	<g>
		<g>
			<path class="st0" d="M77.9,160.3c0,26.5,0,48.3,1.4,59.9c0.8,8,2.5,14.1,10.8,15.2c3.9,0.6,9.9,1.1,12.4,1.1
				c1.7,0,2.2,0.8,2.2,1.7c0,1.4-1.4,2.2-4.4,2.2c-15.2,0-32.6-0.8-33.9-0.8c-1.4,0-18.8,0.8-27,0.8c-3,0-4.4-0.6-4.4-2.2
				c0-0.8,0.6-1.7,2.2-1.7c2.5,0,5.8-0.6,8.3-1.1c5.5-1.1,6.9-7.2,8-15.2c1.4-11.6,1.4-33.4,1.4-59.9v-48.6c0-43.1,0-50.8-0.6-59.6
				c-0.6-9.4-3.3-14.1-9.4-15.5c-3-0.8-6.6-1.1-8.6-1.1c-1.1,0-2.2-0.6-2.2-1.7c0-1.7,1.4-2.2,4.4-2.2c9.1,0,26.5,0.8,27.9,0.8
				c1.4,0,18.8-0.8,27-0.8c3,0,4.4,0.6,4.4,2.2c0,1.1-1.1,1.7-2.2,1.7c-1.9,0-3.6,0.3-6.9,0.8c-7.5,1.4-9.7,6.1-10.2,15.7
				c-0.6,8.8-0.6,16.6-0.6,59.6V160.3z"/>
		</g>
		<g>
			<path class="st0" d="M367.6,30.4c60.6,0,105.8,38.2,105.8,101c0,60.3-42.5,110.1-107.4,110.1c-73.8,0-104.5-57.3-104.5-105.8
				C261.5,92.1,293.3,30.4,367.6,30.4z M373.2,231.3c24.2,0,74.3-14,74.3-92.4c0-64.6-39.3-99.4-81.9-99.4
				c-45,0-78.6,29.6-78.6,88.6C287.1,190.9,324.8,231.3,373.2,231.3z"/>
		</g>
		<g>
			<path class="st0" d="M203.5,141.6c-8.9-12.8-18.6-25.1-26.6-38.5c-6.9-11.5-8.8-23.1-6.3-33.4v0c0,0,0,0,0,0c0,0,0,0,0,0
				c0.3-1.5,10.9-44.6,82.1-29.4c0,0-19-16.9-46.6-17.1c-1.8-0.1-3.5,0-5.2,0.2c-10,0.7-20.9,3.7-32.4,10.3c0,0-0.1,0-0.1,0.1
				c-0.8,0.5-1.7,1-2.6,1.5l0,0c-10,6.3-17.5,15.2-21.4,27.5c-4.2,13.5-1.9,27.1,3.4,40.3c7.9,19.5,20.6,36.5,32.5,54
				c15.3,22.6,31,45.2,25,74c-0.3,1.4-0.8,3.4,0.9,4.2c2.7,1.2,4.2-1.1,5.4-2.6c11.5-14.2,17.6-29.8,13.4-47.8
				C221.4,169,213,155.1,203.5,141.6z"/>
			<path class="st1" d="M161.5,150.3c-12.7-18-25.2-36.1-29.2-57.8c-1.9-10-0.4-19.8,1.3-30.4c-18.1,13.4-25.9,39.5-19.1,60.5
				c5.8,17.9,17,33,28,48.3c8.3,11.6,17,23.1,22.8,36.1c6,13.5,3.4,28.6-4.9,39.7c-9.9,11.3-30.8,23.2-73.6,14
				c0,0,25.8,23.1,61.3,15.6c0,0.1,0.1,0.2,0.1,0.3c8-1.6,15.2-4.6,21.5-8.5c1.3-0.7,2.7-1.5,4-2.4l0-0.3
				c18.2-13.6,26.5-36.6,18.5-61C185.5,184.4,173.5,167.4,161.5,150.3z"/>
			<circle class="st1" cx="246.7" cy="49.8" r="2.7"/>
			<circle class="st1" cx="224.8" cy="235.1" r="2.7"/>
			<circle class="st1" cx="226.6" cy="48.1" r="4"/>
			<circle class="st1" cx="236.7" cy="218.2" r="4"/>
			<circle class="st1" cx="206.8" cy="52.1" r="5.4"/>
			<circle class="st1" cx="240.5" cy="198.7" r="5.4"/>
			<circle class="st1" cx="193.7" cy="69.2" r="6.7"/>
			<circle class="st1" cx="239.2" cy="173.6" r="6.7"/>
			<circle class="st1" cx="193.4" cy="94.3" r="8"/>
			<circle class="st1" cx="227.1" cy="146.6" r="8"/>
			<circle class="st1" cx="210.2" cy="119.5" r="9.4"/>
		</g>
		<rect x="512.6" y="23.6" class="st2" width="3.2" height="232.4"/>
	</g>
	<g>
		<path class="st0" d="M567.8,74.2c0,7.2,0,13,0.4,16.1c0.3,2.2,0.5,3.6,2.8,3.9c1.1,0.2,2.8,0.4,3.5,0.4c0.4,0,0.6,0.4,0.6,0.6
			c0,0.4-0.4,0.6-1.2,0.6c-4.3,0-9.3-0.3-9.6-0.3c-0.4,0-5.2,0.3-7.6,0.3c-0.8,0-1.2-0.2-1.2-0.6c0-0.3,0.2-0.6,0.6-0.6
			c0.7,0,1.7-0.2,2.4-0.4c1.5-0.4,1.8-1.8,2-3.9c0.4-3.1,0.4-8.9,0.4-16.1V61c0-11.5,0-13.6-0.2-16c-0.2-2.5-0.8-3.7-2.5-4
			c-0.9-0.2-1.8-0.3-2.4-0.3c-0.3,0-0.6-0.4-0.6-0.6c0-0.4,0.4-0.6,1.2-0.6c2.5,0,7.3,0.2,7.8,0.2c0.4,0,5.3-0.2,7.7-0.2
			c0.9,0,1.2,0.2,1.2,0.6c0,0.3-0.3,0.6-0.6,0.6c-0.5,0-1,0-1.9,0.2c-2.1,0.4-2.5,1.5-2.7,4.1c-0.1,2.4-0.1,4.5-0.1,16V74.2z"/>
		<path class="st0" d="M596.3,85.6c0.2,6.1,0.9,8,3,8.5c1.4,0.4,3.1,0.4,3.9,0.4c0.3,0,0.6,0.3,0.6,0.6c0,0.4-0.5,0.6-1.4,0.6
			c-4.4,0-7.4-0.3-8.1-0.3c-0.7,0-3.9,0.3-7.4,0.3c-0.8,0-1.2-0.1-1.2-0.6c0-0.4,0.3-0.6,0.6-0.6c0.6,0,2-0.1,3.1-0.4
			c1.9-0.5,2.2-2.5,2.2-9.3V42.2c0-3,0.4-3.8,1-3.8c0.9,0,2.2,1.5,3,2.3c1.2,1.2,12.4,13.1,24.3,25.4c7.6,7.9,15.8,16.7,18.2,19.2
			L637.3,48c-0.1-4.8-0.5-6.5-2.9-6.9c-1.4-0.3-3.1-0.3-3.8-0.3c-0.5,0-0.6-0.4-0.6-0.7c0-0.4,0.6-0.5,1.5-0.5c3.5,0,7.2,0.2,8,0.2
			c0.9,0,3.4-0.2,6.6-0.2c0.8,0,1.4,0.1,1.4,0.5c0,0.3-0.4,0.7-0.9,0.7c-0.4,0-1,0-1.8,0.2c-2.5,0.5-2.7,2-2.7,6.5L641.9,91
			c0,4.9-0.1,5.3-0.6,5.3c-0.8,0-1.6-0.6-5.9-4.5c-0.8-0.7-11.9-11.6-20-20.1c-8.9-9.4-17.6-18.5-19.9-21.1L596.3,85.6z"/>
		<path class="st0" d="M659.5,94.7c-1-0.5-1.1-0.8-1.1-2.8c0-3.7,0.3-6.6,0.4-7.9c0-0.8,0.2-1.2,0.6-1.2s0.7,0.3,0.7,0.9
			c0,0.6,0,1.7,0.3,2.7c1.2,5.4,7,7.3,12.2,7.3c7.6,0,11.5-4.3,11.5-9.9c0-5.3-2.9-7.9-9.7-12.9l-3.5-2.6c-8.3-6.2-11-10.8-11-15.9
			c0-8.7,6.9-14,17.1-14c3.1,0,6.1,0.4,8,0.9c1.5,0.4,2.1,0.4,2.7,0.4c0.6,0,0.8,0.1,0.8,0.5c0,0.4-0.4,2.8-0.4,7.9
			c0,1.1-0.1,1.7-0.6,1.7c-0.5,0-0.6-0.4-0.7-1c-0.1-0.9-0.7-2.9-1.1-3.7c-0.5-0.9-3.1-3.7-10-3.7c-5.6,0-10.2,2.8-10.2,8
			c0,4.7,2.4,7.4,10,12.6l2.2,1.5c9.4,6.4,12.6,11.5,12.6,17.9c0,4.4-1.7,9.1-7.2,12.7c-3.2,2.1-8,2.6-12.2,2.6
			C667.1,96.7,662.7,96.2,659.5,94.7z"/>
		<path class="st0" d="M728.6,74.2c0,7.2,0,13,0.4,16.1c0.3,2.2,0.6,3.6,3,3.9c1,0.2,2.8,0.4,3.5,0.4c0.5,0,0.6,0.4,0.6,0.6
			c0,0.4-0.4,0.6-1.2,0.6c-4.2,0-9.1-0.3-9.5-0.3c-0.4,0-5.7,0.3-8,0.3c-0.9,0-1.2-0.2-1.2-0.6c0-0.3,0.2-0.5,0.6-0.5
			c0.7,0,1.6-0.2,2.3-0.4c1.6-0.3,2-1.8,2.3-4c0.4-3.1,0.4-8.9,0.4-16.1V42.9l-11.1,0.2c-4.8,0.1-6.6,0.6-7.8,2.4
			c-0.9,1.3-1,1.8-1.2,2.4c-0.2,0.6-0.4,0.7-0.8,0.7c-0.2,0-0.5-0.2-0.5-0.6c0-0.8,1.5-7.4,1.7-8c0.1-0.4,0.5-1.4,0.8-1.4
			c0.5,0,1.3,0.6,3.4,0.9c2.2,0.3,5.2,0.3,6,0.3h29c2.5,0,4.3-0.2,5.5-0.3c1.1-0.2,1.8-0.4,2.2-0.4c0.4,0,0.4,0.4,0.4,0.9
			c0,2.3-0.3,7.6-0.3,8.5c0,0.6-0.4,1-0.7,1s-0.5-0.3-0.6-1.3l-0.1-0.8c-0.3-2.3-1.9-3.9-9.3-4.1l-9.6-0.2V74.2z"/>
		<path class="st0" d="M772.2,74.2c0,7.2,0,13,0.4,16.1c0.3,2.2,0.5,3.6,2.8,3.9c1.1,0.2,2.8,0.4,3.5,0.4c0.4,0,0.6,0.4,0.6,0.6
			c0,0.4-0.4,0.6-1.2,0.6c-4.3,0-9.3-0.3-9.6-0.3c-0.4,0-5.2,0.3-7.6,0.3c-0.8,0-1.2-0.2-1.2-0.6c0-0.3,0.2-0.6,0.6-0.6
			c0.7,0,1.7-0.2,2.4-0.4c1.5-0.4,1.8-1.8,2-3.9c0.4-3.1,0.4-8.9,0.4-16.1V61c0-11.5,0-13.6-0.2-16c-0.2-2.5-0.8-3.7-2.5-4
			c-0.9-0.2-1.8-0.3-2.4-0.3c-0.3,0-0.6-0.4-0.6-0.6c0-0.4,0.4-0.6,1.2-0.6c2.5,0,7.3,0.2,7.8,0.2c0.4,0,5.3-0.2,7.7-0.2
			c0.9,0,1.2,0.2,1.2,0.6c0,0.3-0.4,0.6-0.6,0.6c-0.5,0-1,0-1.9,0.2c-2.1,0.4-2.5,1.5-2.7,4.1c-0.1,2.4-0.1,4.5-0.1,16V74.2z"/>
		<path class="st0" d="M816,74.2c0,7.2,0,13,0.4,16.1c0.3,2.2,0.6,3.6,3,3.9c1,0.2,2.8,0.4,3.5,0.4c0.5,0,0.6,0.4,0.6,0.6
			c0,0.4-0.4,0.6-1.2,0.6c-4.2,0-9.1-0.3-9.5-0.3c-0.4,0-5.7,0.3-8,0.3c-0.9,0-1.2-0.2-1.2-0.6c0-0.3,0.2-0.5,0.6-0.5
			c0.7,0,1.6-0.2,2.3-0.4c1.6-0.3,2-1.8,2.3-4c0.4-3.1,0.4-8.9,0.4-16.1V42.9l-11.1,0.2c-4.8,0.1-6.6,0.6-7.8,2.4
			c-0.9,1.3-1,1.8-1.2,2.4c-0.2,0.6-0.4,0.7-0.8,0.7c-0.2,0-0.5-0.2-0.5-0.6c0-0.8,1.5-7.4,1.7-8c0.1-0.4,0.5-1.4,0.8-1.4
			c0.5,0,1.3,0.6,3.4,0.9c2.2,0.3,5.2,0.3,6,0.3h29c2.5,0,4.3-0.2,5.5-0.3c1.1-0.2,1.8-0.4,2.2-0.4c0.4,0,0.4,0.4,0.4,0.9
			c0,2.3-0.3,7.6-0.3,8.5c0,0.6-0.4,1-0.7,1c-0.4,0-0.5-0.3-0.6-1.3l-0.1-0.8c-0.3-2.3-1.9-3.9-9.3-4.1l-9.6-0.2V74.2z"/>
		<path class="st0" d="M848.7,61c0-11.5,0-13.6-0.2-16c-0.2-2.4-0.6-3.8-3.1-4.1c-0.6-0.1-1.9-0.2-2.6-0.2c-0.3,0-0.6-0.4-0.6-0.6
			c0-0.4,0.3-0.6,1.2-0.6c3.5,0,8.1,0.2,8.8,0.2c0.7,0,5.5-0.2,7.8-0.2c0.9,0,1.3,0.2,1.3,0.6c0,0.3-0.4,0.6-0.7,0.6
			c-0.5,0-1,0-1.9,0.2c-2,0.4-2.4,1.7-2.6,4.1c-0.2,2.4-0.2,4.5-0.2,16v10.4c0,10.8,2.4,15.2,5.7,18.2c3.8,3.4,7.1,4,11.5,4
			c4.7,0,9.3-2.1,11.9-5.2c3.6-4.3,4.4-10.4,4.4-18V61c0-11.5-0.1-13.6-0.2-16s-0.5-3.8-3.1-4.1c-0.6-0.1-1.9-0.2-2.6-0.2
			c-0.4,0-0.6-0.4-0.6-0.6c0-0.4,0.4-0.6,1.2-0.6c3.4,0,7.9,0.2,8.3,0.2c0.5,0,4.2-0.2,6.5-0.2c0.9,0,1.2,0.2,1.2,0.6
			c0,0.3-0.3,0.6-0.6,0.6c-0.5,0-1,0-1.9,0.2c-2.1,0.4-2.5,1.7-2.7,4.1c-0.2,2.4-0.1,4.5-0.1,16v8c0,8-1,17.1-7.2,22.3
			c-5.6,4.8-11.5,5.4-16.1,5.4c-2.5,0-10.6-0.2-16-5.2c-3.8-3.5-6.7-8.7-6.7-19.5V61z"/>
		<path class="st0" d="M933.4,74.2c0,7.2,0,13,0.3,16.1c0.3,2.2,0.6,3.6,3,3.9c1,0.2,2.8,0.4,3.5,0.4c0.5,0,0.6,0.4,0.6,0.6
			c0,0.4-0.3,0.6-1.2,0.6c-4.2,0-9.1-0.3-9.5-0.3c-0.3,0-5.7,0.3-8,0.3c-0.9,0-1.2-0.2-1.2-0.6c0-0.3,0.2-0.5,0.6-0.5
			c0.7,0,1.6-0.2,2.3-0.4c1.6-0.3,2-1.8,2.3-4c0.4-3.1,0.4-8.9,0.4-16.1V42.9l-11.1,0.2c-4.8,0.1-6.6,0.6-7.8,2.4
			c-0.9,1.3-1,1.8-1.2,2.4c-0.2,0.6-0.4,0.7-0.8,0.7c-0.2,0-0.5-0.2-0.5-0.6c0-0.8,1.5-7.4,1.7-8c0.1-0.4,0.5-1.4,0.8-1.4
			c0.5,0,1.3,0.6,3.4,0.9c2.2,0.3,5.2,0.3,6,0.3h29c2.5,0,4.3-0.2,5.5-0.3c1.1-0.2,1.8-0.4,2.2-0.4c0.3,0,0.3,0.4,0.3,0.9
			c0,2.3-0.3,7.6-0.3,8.5c0,0.6-0.4,1-0.7,1c-0.3,0-0.5-0.3-0.6-1.3l-0.1-0.8c-0.3-2.3-1.9-3.9-9.3-4.1l-9.6-0.2V74.2z"/>
	</g>
	<g>
		<path class="st0" d="M556.2,167.9c-0.9-0.4-1-0.7-1-2.4c0-3.1,0.3-5.6,0.4-6.7c0-0.7,0.1-1,0.5-1c0.4,0,0.6,0.2,0.6,0.7
			c0,0.5,0,1.4,0.2,2.3c1,4.6,5.9,6.2,10.3,6.2c6.4,0,9.8-3.6,9.8-8.4c0-4.5-2.4-6.7-8.2-11l-3-2.2c-7-5.3-9.3-9.1-9.3-13.5
			c0-7.4,5.9-11.9,14.5-11.9c2.6,0,5.2,0.4,6.7,0.7c1.3,0.3,1.8,0.3,2.3,0.3c0.5,0,0.7,0.1,0.7,0.4c0,0.3-0.3,2.4-0.3,6.7
			c0,1-0.1,1.4-0.5,1.4s-0.5-0.3-0.6-0.8c-0.1-0.7-0.6-2.4-1-3.1c-0.4-0.7-2.6-3.1-8.4-3.1c-4.7,0-8.7,2.4-8.7,6.8
			c0,4,2,6.3,8.4,10.7l1.9,1.3c7.9,5.4,10.7,9.8,10.7,15.2c0,3.7-1.4,7.7-6.1,10.7c-2.7,1.8-6.8,2.2-10.4,2.2
			C562.6,169.6,558.8,169.2,556.2,167.9z"/>
		<path class="st0" d="M597.2,139.4c0-9.8,0-11.6-0.1-13.6c-0.1-2-0.5-3.2-2.7-3.5c-0.5-0.1-1.6-0.1-2.2-0.1c-0.2,0-0.5-0.3-0.5-0.5
			c0-0.4,0.3-0.5,1-0.5c3,0,6.9,0.1,7.5,0.1c0.6,0,4.7-0.1,6.6-0.1c0.7,0,1.1,0.1,1.1,0.5c0,0.2-0.3,0.5-0.6,0.5
			c-0.4,0-0.8,0-1.6,0.1c-1.7,0.3-2.1,1.4-2.2,3.5c-0.1,2-0.1,3.8-0.1,13.6v8.8c0,9.1,2,12.9,4.8,15.4c3.2,2.9,6,3.4,9.7,3.4
			c4,0,7.9-1.8,10.1-4.4c3-3.6,3.7-8.8,3.7-15.3v-7.9c0-9.8-0.1-11.6-0.1-13.6c-0.1-2-0.4-3.2-2.6-3.5c-0.5-0.1-1.6-0.1-2.2-0.1
			c-0.3,0-0.5-0.3-0.5-0.5c0-0.4,0.3-0.5,1-0.5c2.9,0,6.7,0.1,7,0.1c0.4,0,3.6-0.1,5.5-0.1c0.7,0,1,0.1,1,0.5c0,0.2-0.2,0.5-0.5,0.5
			c-0.4,0-0.8,0-1.6,0.1c-1.8,0.4-2.1,1.4-2.3,3.5c-0.1,2-0.1,3.8-0.1,13.6v6.7c0,6.8-0.9,14.5-6.1,18.9c-4.7,4.1-9.8,4.6-13.6,4.6
			c-2.1,0-9-0.1-13.6-4.4c-3.2-3-5.7-7.3-5.7-16.5V139.4z"/>
		<path class="st0" d="M654.7,139.4c0-9.8,0-11.6-0.1-13.6c-0.1-2.1-0.5-3.2-2.7-3.5c-0.5-0.1-1.6-0.1-2.2-0.1
			c-0.2,0-0.5-0.3-0.5-0.5c0-0.4,0.3-0.5,1-0.5c3,0,7,0.1,7.6,0.1c1.4,0,6.3-0.1,9.3-0.1c8.4,0,11.3,2.6,12.5,3.6
			c1.5,1.3,3.3,4.2,3.3,7.6c0,9-6.8,15-16.8,15c-0.4,0-1.5,0-1.9-0.1c-0.3,0-0.7-0.3-0.7-0.6c0-0.5,0.4-0.7,1.7-0.7
			c7,0,12.1-4.4,12.1-10.2c0-2.1-0.2-6.2-3.7-9.6c-3.4-3.4-7.3-3-8.8-3c-1.1,0-3,0.3-3.6,0.4c-0.4,0.1-0.5,0.5-0.5,1.2v25.6
			c0,6.1,0,11,0.3,13.6c0.2,1.9,0.6,3,2.6,3.3c0.9,0.1,2.3,0.3,2.9,0.3c0.4,0,0.5,0.3,0.5,0.5c0,0.3-0.3,0.5-1,0.5
			c-3.6,0-7.9-0.2-8.2-0.2c-0.2,0-4.4,0.2-6.4,0.2c-0.7,0-1-0.1-1-0.5c0-0.2,0.1-0.5,0.5-0.5c0.6,0,1.4-0.1,2-0.3
			c1.3-0.3,1.4-1.5,1.7-3.3c0.4-2.6,0.4-7.6,0.4-13.6V139.4z"/>
		<path class="st0" d="M697.1,139.4c0-9.8,0-11.6-0.1-13.6c-0.1-2.1-0.5-3.2-2.7-3.5c-0.5-0.1-1.6-0.1-2.2-0.1
			c-0.2,0-0.5-0.3-0.5-0.5c0-0.4,0.3-0.5,1-0.5c3,0,7.2,0.1,7.6,0.1c0.4,0,14.1,0.1,15.6,0c1.3-0.1,2.4-0.3,3-0.4
			c0.3-0.1,0.6-0.3,0.9-0.3c0.2,0,0.3,0.3,0.3,0.6c0,0.4-0.4,1.2-0.5,3c-0.1,0.6-0.2,3.4-0.4,4.1c-0.1,0.3-0.3,0.7-0.6,0.7
			c-0.4,0-0.5-0.3-0.5-0.8c0-0.4-0.1-1.5-0.4-2.2c-0.4-1-1.1-1.5-4.7-1.9c-1.1-0.1-8.7-0.2-9.4-0.2c-0.3,0-0.4,0.2-0.4,0.7v17.1
			c0,0.4,0,0.7,0.4,0.7c0.8,0,9.4,0,10.9-0.1c1.6-0.1,2.5-0.2,3.2-0.9c0.4-0.4,0.7-0.8,1-0.8c0.2,0,0.4,0.1,0.4,0.5
			c0,0.4-0.4,1.4-0.5,3.5c-0.1,1.3-0.3,3.6-0.3,4.1c0,0.5-0.1,1.2-0.6,1.2c-0.3,0-0.4-0.2-0.4-0.6c0-0.6,0-1.3-0.3-2.1
			c-0.2-0.9-0.8-1.6-3.3-1.9c-1.8-0.2-8.7-0.3-9.9-0.3c-0.4,0-0.4,0.2-0.4,0.4v5.3c0,2.1-0.1,9.5,0,10.7c0.1,4.2,1.3,5,7.8,5
			c1.7,0,4.8,0,6.5-0.7c1.7-0.7,2.6-1.9,3-4.4c0.1-0.7,0.3-1,0.7-1c0.4,0,0.4,0.5,0.4,1c0,0.4-0.5,4.7-0.9,6.1
			c-0.4,1.6-1.1,1.6-3.6,1.6c-4.9,0-8.7-0.1-11.3-0.2c-2.7-0.1-4.4-0.1-5.4-0.1c-0.1,0-1.4,0-2.8,0.1c-1.3,0.1-2.7,0.1-3.8,0.1
			c-0.7,0-1-0.1-1-0.5c0-0.2,0.1-0.5,0.5-0.5c0.6,0,1.4-0.2,2-0.3c1.3-0.2,1.4-1.5,1.7-3.3c0.4-2.6,0.4-7.6,0.4-13.6V139.4z
			 M717.4,111.2c0.4,0.7,0,0.9-0.3,0.9c-0.2,0-1-0.1-2.2,0c-3.6,0.4-8.8,2.1-11.3,3.1c-0.5,0.2-1,0.4-1.1,0.4
			c-0.1,0-0.4-0.1-0.4-0.4c0-0.2,0.1-0.4,0.5-0.6c2.7-1.9,9.6-6,10.1-6.3c1.3-0.7,1.7-1,2.1-1c0.2,0,0.4,0.1,0.7,0.7
			C716,108.7,716.6,109.7,717.4,111.2z"/>
		<path class="st0" d="M738,139.4c0-9.8,0-11.6-0.1-13.6c-0.1-2.1-0.5-3.2-2.7-3.5c-0.5-0.1-1.6-0.1-2.2-0.1c-0.2,0-0.5-0.3-0.5-0.5
			c0-0.4,0.3-0.5,1-0.5c3,0,7.3,0.1,7.7,0.1c0.7,0,6.2-0.1,8.2-0.1c4.1,0,8.7,0.4,12.2,2.7c1.6,1.2,4.5,4.2,4.5,8.6
			c0,4.7-1.9,9.2-8,14.4c5.3,6.7,9.9,12.4,13.6,16.3c3.5,3.6,5.6,4.2,7.3,4.4c1.3,0.2,1.9,0.2,2.3,0.2c0.4,0,0.6,0.3,0.6,0.5
			c0,0.4-0.4,0.5-1.6,0.5h-4.1c-3.7,0-5.3-0.4-7-1.3c-2.8-1.5-5.2-4.5-8.9-9.3c-2.7-3.4-5.6-7.5-7-9.2c-0.3-0.3-0.4-0.4-0.9-0.4
			l-8.3-0.1c-0.3,0-0.4,0.1-0.4,0.5v1.5c0,6.1,0,11,0.3,13.6c0.2,1.9,0.6,3,2.6,3.3c0.9,0.1,2.3,0.3,2.9,0.3c0.4,0,0.5,0.3,0.5,0.5
			c0,0.3-0.3,0.5-1,0.5c-3.6,0-7.7-0.2-8-0.2c-0.1,0-4.4,0.2-6.4,0.2c-0.7,0-1-0.1-1-0.5c0-0.2,0.1-0.5,0.5-0.5c0.6,0,1.4-0.1,2-0.3
			c1.3-0.3,1.4-1.5,1.7-3.3c0.4-2.6,0.4-7.6,0.4-13.6V139.4z M743.6,144.7c0,0.4,0.1,0.6,0.4,0.8c1,0.5,4.3,1,7.2,1
			c1.6,0,3.3-0.1,4.9-1.1c2.2-1.5,3.9-4.8,3.9-9.6c0-7.9-4.3-12.4-11.3-12.4c-1.9,0-4,0.2-4.7,0.4c-0.3,0.1-0.5,0.4-0.5,0.7V144.7z"
			/>
		<path class="st0" d="M793.7,150.5c0,6.1,0,11,0.3,13.6c0.2,1.9,0.4,3,2.4,3.3c1,0.1,2.4,0.3,3,0.3c0.4,0,0.5,0.3,0.5,0.5
			c0,0.3-0.3,0.5-1,0.5c-3.6,0-7.9-0.2-8.2-0.2c-0.4,0-4.4,0.2-6.4,0.2c-0.7,0-1-0.1-1-0.5c0-0.2,0.1-0.5,0.5-0.5
			c0.6,0,1.4-0.1,2-0.3c1.3-0.3,1.5-1.5,1.7-3.3c0.3-2.6,0.4-7.6,0.4-13.6v-11.1c0-9.8,0-11.6-0.1-13.6c-0.1-2.1-0.7-3.1-2.1-3.4
			c-0.7-0.1-1.6-0.2-2-0.2c-0.3,0-0.5-0.3-0.5-0.5c0-0.4,0.3-0.5,1-0.5c2.1,0,6.2,0.1,6.6,0.1c0.3,0,4.5-0.1,6.5-0.1
			c0.7,0,1,0.1,1,0.5c0,0.2-0.3,0.5-0.5,0.5c-0.4,0-0.9,0-1.6,0.1c-1.8,0.4-2.1,1.3-2.3,3.5c-0.1,2-0.1,3.8-0.1,13.6V150.5z"/>
		<path class="st0" d="M815.1,139.4c0-9.8,0-11.6-0.1-13.6c-0.1-2.1-0.5-3.2-2.7-3.5c-0.5-0.1-1.6-0.1-2.2-0.1
			c-0.2,0-0.5-0.3-0.5-0.5c0-0.4,0.3-0.5,1-0.5c3,0,7.2,0.1,7.6,0.1c0.4,0,14.1,0.1,15.6,0c1.3-0.1,2.4-0.3,3-0.4
			c0.3-0.1,0.6-0.3,0.9-0.3c0.2,0,0.3,0.3,0.3,0.6c0,0.4-0.4,1.2-0.5,3c-0.1,0.6-0.2,3.4-0.4,4.1c-0.1,0.3-0.3,0.7-0.6,0.7
			c-0.4,0-0.5-0.3-0.5-0.8c0-0.4-0.1-1.5-0.4-2.2c-0.4-1-1.1-1.5-4.7-1.9c-1.1-0.1-8.7-0.2-9.4-0.2c-0.3,0-0.4,0.2-0.4,0.7v17.1
			c0,0.4,0,0.7,0.4,0.7c0.8,0,9.4,0,10.9-0.1c1.6-0.1,2.5-0.2,3.2-0.9c0.4-0.4,0.7-0.8,1-0.8c0.2,0,0.4,0.1,0.4,0.5
			c0,0.4-0.4,1.4-0.5,3.5c-0.1,1.3-0.3,3.6-0.3,4.1c0,0.5-0.1,1.2-0.6,1.2c-0.3,0-0.4-0.2-0.4-0.6c0-0.6,0-1.3-0.3-2.1
			c-0.2-0.9-0.8-1.6-3.3-1.9c-1.8-0.2-8.7-0.3-9.9-0.3c-0.4,0-0.4,0.2-0.4,0.4v5.3c0,2.1-0.1,9.5,0,10.7c0.1,4.2,1.3,5,7.8,5
			c1.7,0,4.8,0,6.5-0.7c1.7-0.7,2.6-1.9,3-4.4c0.1-0.7,0.3-1,0.7-1c0.4,0,0.4,0.5,0.4,1c0,0.4-0.5,4.7-0.9,6.1
			c-0.4,1.6-1.1,1.6-3.6,1.6c-4.9,0-8.7-0.1-11.3-0.2c-2.7-0.1-4.4-0.1-5.4-0.1c-0.1,0-1.4,0-2.8,0.1c-1.3,0.1-2.7,0.1-3.8,0.1
			c-0.7,0-1-0.1-1-0.5c0-0.2,0.1-0.5,0.5-0.5c0.6,0,1.4-0.2,2-0.3c1.3-0.2,1.4-1.5,1.7-3.3c0.4-2.6,0.4-7.6,0.4-13.6V139.4z"/>
		<path class="st0" d="M852.6,139.4c0-9.8,0-11.6-0.1-13.6c-0.1-2-0.5-3.2-2.7-3.5c-0.5-0.1-1.6-0.1-2.2-0.1c-0.2,0-0.5-0.3-0.5-0.5
			c0-0.4,0.3-0.5,1-0.5c3,0,6.9,0.1,7.5,0.1c0.6,0,4.7-0.1,6.6-0.1c0.7,0,1.1,0.1,1.1,0.5c0,0.2-0.3,0.5-0.6,0.5
			c-0.4,0-0.8,0-1.6,0.1c-1.7,0.3-2.1,1.4-2.2,3.5c-0.1,2-0.1,3.8-0.1,13.6v8.8c0,9.1,2,12.9,4.8,15.4c3.2,2.9,6,3.4,9.7,3.4
			c4,0,7.9-1.8,10.1-4.4c3-3.6,3.7-8.8,3.7-15.3v-7.9c0-9.8-0.1-11.6-0.1-13.6c-0.1-2-0.4-3.2-2.6-3.5c-0.5-0.1-1.6-0.1-2.2-0.1
			c-0.3,0-0.5-0.3-0.5-0.5c0-0.4,0.3-0.5,1-0.5c2.9,0,6.7,0.1,7,0.1c0.4,0,3.6-0.1,5.5-0.1c0.7,0,1,0.1,1,0.5c0,0.2-0.2,0.5-0.5,0.5
			c-0.4,0-0.8,0-1.6,0.1c-1.8,0.4-2.1,1.4-2.3,3.5c-0.1,2-0.1,3.8-0.1,13.6v6.7c0,6.8-0.9,14.5-6.1,18.9c-4.7,4.1-9.8,4.6-13.6,4.6
			c-2.1,0-9-0.1-13.6-4.4c-3.2-3-5.7-7.3-5.7-16.5V139.4z"/>
		<path class="st0" d="M910.2,139.4c0-9.8,0-11.6-0.1-13.6c-0.1-2.1-0.5-3.2-2.7-3.5c-0.5-0.1-1.6-0.1-2.2-0.1
			c-0.2,0-0.5-0.3-0.5-0.5c0-0.4,0.3-0.5,1-0.5c3,0,7.3,0.1,7.7,0.1c0.7,0,6.2-0.1,8.2-0.1c4.1,0,8.7,0.4,12.2,2.7
			c1.6,1.2,4.5,4.2,4.5,8.6c0,4.7-1.9,9.2-8,14.4c5.3,6.7,9.9,12.4,13.6,16.3c3.5,3.6,5.6,4.2,7.3,4.4c1.3,0.2,1.9,0.2,2.3,0.2
			c0.4,0,0.6,0.3,0.6,0.5c0,0.4-0.4,0.5-1.6,0.5h-4.1c-3.7,0-5.3-0.4-7-1.3c-2.8-1.5-5.2-4.5-8.9-9.3c-2.7-3.4-5.6-7.5-7-9.2
			c-0.3-0.3-0.4-0.4-0.9-0.4l-8.3-0.1c-0.3,0-0.4,0.1-0.4,0.5v1.5c0,6.1,0,11,0.3,13.6c0.2,1.9,0.6,3,2.6,3.3
			c0.9,0.1,2.3,0.3,2.9,0.3c0.4,0,0.5,0.3,0.5,0.5c0,0.3-0.3,0.5-1,0.5c-3.6,0-7.7-0.2-8-0.2c-0.1,0-4.4,0.2-6.4,0.2
			c-0.7,0-1-0.1-1-0.5c0-0.2,0.1-0.5,0.5-0.5c0.6,0,1.4-0.1,2-0.3c1.3-0.3,1.4-1.5,1.7-3.3c0.4-2.6,0.4-7.6,0.4-13.6V139.4z
			 M915.8,144.7c0,0.4,0.1,0.6,0.4,0.8c1,0.5,4.3,1,7.2,1c1.6,0,3.3-0.1,4.9-1.1c2.2-1.5,3.9-4.8,3.9-9.6c0-7.9-4.3-12.4-11.3-12.4
			c-1.9,0-4,0.2-4.7,0.4c-0.3,0.1-0.5,0.4-0.5,0.7V144.7z"/>
	</g>
	<g>
		<path class="st0" d="M576.3,194.5c11.9,0,21,7.3,21,19.2c0,11.5-8.5,20.9-21.3,20.9c-14.5,0-20.7-10.9-20.7-20.1
			C555.2,206.3,561.6,194.5,576.3,194.5z M577.5,232.6c4.8,0,14.4-2.5,14.4-17.4c0-12.3-7.5-18.8-15.9-18.8
			c-8.9,0-15.3,5.5-15.3,16.7C560.7,225.1,567.9,232.6,577.5,232.6z"/>
		<path class="st0" d="M605.5,233.3c-0.7-0.4-0.8-0.5-0.8-1.9c0-2.5,0.2-4.6,0.3-5.4c0-0.5,0.1-0.8,0.4-0.8c0.3,0,0.5,0.2,0.5,0.6
			c0,0.4,0,1.1,0.2,1.9c0.8,3.7,4.8,5.1,8.4,5.1c5.2,0,8-3,8-6.8c0-3.7-2-5.4-6.7-8.9l-2.4-1.8c-5.7-4.3-7.6-7.4-7.6-11
			c0-6,4.8-9.6,11.8-9.6c2.1,0,4.2,0.3,5.5,0.6c1,0.2,1.4,0.2,1.9,0.2c0.4,0,0.5,0.1,0.5,0.4c0,0.2-0.2,1.9-0.2,5.4
			c0,0.8-0.1,1.1-0.4,1.1s-0.4-0.2-0.5-0.7c-0.1-0.6-0.5-2-0.8-2.5c-0.4-0.6-2.1-2.5-6.9-2.5c-3.9,0-7.1,1.9-7.1,5.5
			c0,3.3,1.6,5.1,6.9,8.7l1.5,1c6.5,4.4,8.7,8,8.7,12.4c0,3-1.1,6.3-4.9,8.7c-2.2,1.4-5.5,1.8-8.4,1.8
			C610.8,234.7,607.7,234.3,605.5,233.3z"/>
		<path class="st0" d="M653.1,219.1c0,4.9,0,9,0.2,11.1c0.2,1.5,0.4,2.5,2.1,2.7c0.7,0.1,1.9,0.2,2.4,0.2c0.4,0,0.4,0.2,0.4,0.4
			c0,0.2-0.2,0.4-0.8,0.4c-2.9,0-6.3-0.2-6.6-0.2c-0.2,0-3.9,0.2-5.5,0.2c-0.6,0-0.8-0.1-0.8-0.4c0-0.2,0.1-0.4,0.4-0.4
			c0.5,0,1.1-0.1,1.6-0.2c1.1-0.2,1.4-1.3,1.6-2.8c0.2-2.1,0.2-6.2,0.2-11.1v-21.5l-7.7,0.1c-3.3,0.1-4.6,0.4-5.4,1.6
			c-0.6,0.9-0.7,1.3-0.8,1.6c-0.1,0.4-0.3,0.5-0.5,0.5c-0.1,0-0.4-0.1-0.4-0.4c0-0.5,1-5.1,1.1-5.5c0.1-0.3,0.4-1,0.5-1
			c0.4,0,0.9,0.4,2.4,0.6c1.5,0.2,3.6,0.2,4.2,0.2h20c1.7,0,3-0.1,3.8-0.2c0.8-0.1,1.3-0.2,1.5-0.2c0.2,0,0.2,0.3,0.2,0.6
			c0,1.6-0.2,5.2-0.2,5.8c0,0.4-0.2,0.7-0.5,0.7s-0.4-0.2-0.4-0.9l-0.1-0.5c-0.2-1.6-1.3-2.7-6.4-2.8l-6.6-0.1V219.1z"/>
		<path class="st0" d="M678.4,210.1c0-8,0-9.4-0.1-11c-0.1-1.7-0.4-2.6-2.2-2.8c-0.4-0.1-1.3-0.1-1.8-0.1c-0.2,0-0.4-0.2-0.4-0.4
			c0-0.3,0.2-0.4,0.8-0.4c2.4,0,5.8,0.1,6.2,0.1c0.4,0,11.5,0.1,12.7,0c1-0.1,2-0.2,2.4-0.3c0.2-0.1,0.5-0.2,0.7-0.2
			c0.2,0,0.2,0.2,0.2,0.5c0,0.4-0.3,1-0.4,2.4c-0.1,0.5-0.2,2.8-0.3,3.4c-0.1,0.2-0.2,0.5-0.5,0.5c-0.3,0-0.4-0.2-0.4-0.7
			c0-0.4-0.1-1.2-0.3-1.8c-0.4-0.8-0.9-1.2-3.8-1.6c-0.9-0.1-7.1-0.2-7.7-0.2c-0.2,0-0.3,0.2-0.3,0.5v13.9c0,0.4,0,0.5,0.3,0.5
			c0.7,0,7.7,0,8.9-0.1c1.3-0.1,2.1-0.2,2.6-0.7c0.4-0.4,0.6-0.7,0.8-0.7c0.2,0,0.3,0.1,0.3,0.4s-0.3,1.1-0.4,2.8
			c-0.1,1-0.2,3-0.2,3.3c0,0.4-0.1,1-0.5,1c-0.2,0-0.4-0.2-0.4-0.5c0-0.5,0-1-0.2-1.7c-0.2-0.7-0.7-1.3-2.7-1.6
			c-1.4-0.2-7.1-0.2-8-0.2c-0.3,0-0.4,0.2-0.4,0.4v4.3c0,1.7-0.1,7.7,0,8.7c0.1,3.4,1.1,4.1,6.3,4.1c1.4,0,3.9,0,5.3-0.5
			c1.4-0.6,2.1-1.5,2.4-3.6c0.1-0.6,0.2-0.8,0.5-0.8c0.3,0,0.4,0.4,0.4,0.8c0,0.4-0.4,3.9-0.7,4.9c-0.4,1.3-0.9,1.3-3,1.3
			c-4,0-7.1-0.1-9.2-0.2c-2.2-0.1-3.6-0.1-4.4-0.1c-0.1,0-1.1,0-2.3,0.1c-1,0.1-2.2,0.1-3.1,0.1c-0.5,0-0.8-0.1-0.8-0.4
			c0-0.2,0.1-0.4,0.4-0.4c0.5,0,1.1-0.2,1.6-0.2c1-0.2,1.1-1.2,1.4-2.7c0.3-2.1,0.3-6.2,0.3-11.1V210.1z M694.8,187.2
			c0.3,0.5,0,0.7-0.2,0.7c-0.2,0-0.8-0.1-1.8,0c-3,0.3-7.2,1.7-9.2,2.5c-0.4,0.2-0.8,0.3-0.9,0.3c-0.1,0-0.3-0.1-0.3-0.4
			c0-0.2,0.1-0.3,0.4-0.5c2.2-1.5,7.8-4.9,8.2-5.1c1-0.6,1.4-0.8,1.7-0.8c0.2,0,0.3,0.1,0.6,0.5C693.7,185.1,694.2,186,694.8,187.2z
			"/>
		<path class="st0" d="M726.6,194.5c11.9,0,21,7.3,21,19.2c0,11.5-8.5,20.9-21.3,20.9c-14.5,0-20.7-10.9-20.7-20.1
			C705.6,206.3,711.9,194.5,726.6,194.5z M727.8,232.6c4.8,0,14.4-2.5,14.4-17.4c0-12.3-7.5-18.8-15.9-18.8
			c-8.9,0-15.3,5.5-15.3,16.7C711,225.1,718.2,232.6,727.8,232.6z"/>
		<path class="st0" d="M758.7,210.1c0-8,0-9.4-0.1-11c-0.1-1.7-0.4-2.6-2.2-2.8c-0.4-0.1-1.3-0.1-1.8-0.1c-0.2,0-0.4-0.2-0.4-0.4
			c0-0.3,0.2-0.4,0.8-0.4c2.4,0,5.7,0.1,6.2,0.1c1.1,0,5.1-0.1,7.5-0.1c6.8,0,9.2,2.1,10.1,2.9c1.2,1.1,2.7,3.4,2.7,6.2
			c0,7.4-5.5,12.2-13.7,12.2c-0.3,0-1.2,0-1.5-0.1c-0.2,0-0.5-0.2-0.5-0.5c0-0.4,0.3-0.5,1.4-0.5c5.7,0,9.8-3.6,9.8-8.3
			c0-1.7-0.2-5-3-7.8c-2.8-2.8-6-2.5-7.2-2.5c-0.9,0-2.4,0.2-3,0.4c-0.3,0.1-0.4,0.4-0.4,1v20.9c0,4.9,0,9,0.2,11.1
			c0.2,1.5,0.5,2.5,2.1,2.7c0.7,0.1,1.9,0.2,2.4,0.2c0.3,0,0.4,0.2,0.4,0.4c0,0.2-0.2,0.4-0.8,0.4c-2.9,0-6.4-0.2-6.6-0.2
			c-0.2,0-3.6,0.2-5.2,0.2c-0.5,0-0.8-0.1-0.8-0.4c0-0.2,0.1-0.4,0.4-0.4c0.5,0,1.1-0.1,1.6-0.2c1-0.2,1.1-1.2,1.4-2.7
			c0.3-2.1,0.3-6.2,0.3-11.1V210.1z"/>
		<path class="st0" d="M799.6,196.3c0.7-1.7,0.9-2,1.3-2c0.5,0,0.7,0.7,1.3,1.9c1,2.2,9.5,23.3,12.7,31.1c1.9,4.6,3.4,5.2,4.5,5.6
			c0.8,0.2,1.6,0.3,2.1,0.3c0.3,0,0.7,0.1,0.7,0.4s-0.6,0.4-1.2,0.4c-0.8,0-4.7,0-8.4-0.1c-1-0.1-1.9-0.1-1.9-0.4
			c0-0.2,0.1-0.2,0.4-0.4c0.3-0.1,0.8-0.5,0.5-1.4l-4.8-11.8c-0.1-0.2-0.2-0.3-0.5-0.3h-12.2c-0.2,0-0.4,0.1-0.5,0.4l-3,8.2
			c-0.5,1.3-0.8,2.5-0.8,3.4c0,1,0.9,1.4,1.8,1.4h0.5c0.4,0,0.5,0.2,0.5,0.4c0,0.3-0.3,0.4-0.8,0.4c-1.3,0-4.2-0.2-4.8-0.2
			c-0.5,0-3.2,0.2-5.4,0.2c-0.7,0-1-0.1-1-0.4c0-0.2,0.2-0.4,0.5-0.4c0.4,0,1.1-0.1,1.6-0.1c2.4-0.3,3.4-2.1,4.5-4.7L799.6,196.3z
			 M805.5,217.6c0.2,0,0.2-0.1,0.2-0.4l-5.2-14.1c-0.3-0.8-0.6-0.8-0.9,0l-4.9,14.1c-0.1,0.2,0,0.4,0.2,0.4H805.5z"/>
		<path class="st0" d="M836.9,219.1c0,4.9,0,9,0.2,11.1c0.2,1.5,0.4,2.5,2.1,2.7c0.7,0.1,1.9,0.2,2.4,0.2c0.4,0,0.4,0.2,0.4,0.4
			c0,0.2-0.2,0.4-0.8,0.4c-2.9,0-6.3-0.2-6.6-0.2c-0.2,0-3.9,0.2-5.5,0.2c-0.6,0-0.8-0.1-0.8-0.4c0-0.2,0.1-0.4,0.4-0.4
			c0.5,0,1.1-0.1,1.6-0.2c1.1-0.2,1.4-1.3,1.6-2.8c0.2-2.1,0.2-6.2,0.2-11.1v-21.5l-7.7,0.1c-3.3,0.1-4.6,0.4-5.4,1.6
			c-0.6,0.9-0.7,1.3-0.8,1.6c-0.1,0.4-0.3,0.5-0.5,0.5c-0.1,0-0.4-0.1-0.4-0.4c0-0.5,1-5.1,1.1-5.5c0.1-0.3,0.4-1,0.5-1
			c0.4,0,0.9,0.4,2.4,0.6c1.5,0.2,3.6,0.2,4.2,0.2h20c1.7,0,3-0.1,3.8-0.2c0.8-0.1,1.3-0.2,1.5-0.2c0.2,0,0.2,0.3,0.2,0.6
			c0,1.6-0.2,5.2-0.2,5.8c0,0.4-0.2,0.7-0.5,0.7c-0.2,0-0.4-0.2-0.4-0.9l-0.1-0.5c-0.2-1.6-1.3-2.7-6.4-2.8l-6.6-0.1V219.1z"/>
		<path class="st0" d="M894.5,219.1c0,4.9,0.1,9,0.3,11.1c0.2,1.5,0.3,2.5,1.9,2.7c0.7,0.1,1.9,0.2,2.4,0.2c0.4,0,0.5,0.2,0.5,0.4
			c0,0.2-0.3,0.4-0.9,0.4c-2.9,0-6.3-0.2-6.6-0.2c-0.2,0-3.7,0.2-5.2,0.2c-0.6,0-0.8-0.1-0.8-0.4c0-0.2,0.1-0.4,0.4-0.4
			c0.5,0,1.1-0.1,1.6-0.2c1.1-0.2,1.3-1.3,1.4-2.8c0.2-2.1,0.2-6,0.2-10.9v-5.1c0-0.2-0.1-0.3-0.3-0.3h-22.1c-0.2,0-0.3,0.1-0.3,0.3
			v5.1c0,4.9,0,8.9,0.2,11c0.2,1.5,0.4,2.5,1.9,2.7c0.8,0.1,1.9,0.2,2.4,0.2c0.3,0,0.4,0.2,0.4,0.4c0,0.2-0.2,0.4-0.8,0.4
			c-3,0-6.3-0.2-6.6-0.2c-0.3,0-3.7,0.2-5.3,0.2c-0.5,0-0.8-0.1-0.8-0.4c0-0.2,0.1-0.4,0.4-0.4c0.5,0,1.1-0.1,1.6-0.2
			c1-0.2,1.1-1.2,1.4-2.7c0.3-2.1,0.3-6.2,0.3-11.1v-9c0-8,0-9.4-0.1-11c-0.1-1.7-0.4-2.6-2.2-2.8c-0.4-0.1-1.3-0.1-1.8-0.1
			c-0.2,0-0.4-0.2-0.4-0.4c0-0.3,0.2-0.4,0.8-0.4c2.4,0,5.8,0.1,6.1,0.1c0.2,0,3.6-0.1,5.2-0.1c0.6,0,0.8,0.1,0.8,0.4
			c0,0.2-0.2,0.4-0.4,0.4c-0.4,0-0.7,0-1.3,0.1c-1.4,0.3-1.7,1-1.9,2.8c-0.1,1.6-0.1,3.2-0.1,11.2v1.1c0,0.3,0.1,0.3,0.3,0.3h22.1
			c0.2,0,0.3,0,0.3-0.3v-1.1c0-8-0.1-9.5-0.1-11.2c-0.1-1.7-0.4-2.6-2.1-2.8c-0.4-0.1-1.3-0.1-1.8-0.1c-0.2,0-0.4-0.2-0.4-0.4
			c0-0.3,0.2-0.4,0.8-0.4c2.4,0,5.8,0.1,6,0.1c0.3,0,3.7-0.1,5.2-0.1c0.6,0,0.9,0.1,0.9,0.4c0,0.2-0.2,0.4-0.5,0.4
			c-0.4,0-0.7,0-1.3,0.1c-1.4,0.3-1.7,1-1.8,2.8c-0.1,1.6-0.1,3.1-0.1,11V219.1z"/>
		<path class="st0" d="M916.8,219.1c0,4.9,0,9,0.2,11.1c0.2,1.5,0.4,2.5,1.9,2.7c0.8,0.1,1.9,0.2,2.4,0.2c0.3,0,0.4,0.2,0.4,0.4
			c0,0.2-0.2,0.4-0.8,0.4c-3,0-6.4-0.2-6.6-0.2c-0.3,0-3.6,0.2-5.2,0.2c-0.5,0-0.8-0.1-0.8-0.4c0-0.2,0.1-0.4,0.4-0.4
			c0.5,0,1.1-0.1,1.6-0.2c1-0.2,1.2-1.2,1.4-2.7c0.2-2.1,0.3-6.2,0.3-11.1v-9c0-8,0-9.4-0.1-11c-0.1-1.7-0.5-2.5-1.7-2.8
			c-0.6-0.1-1.3-0.2-1.6-0.2c-0.2,0-0.4-0.2-0.4-0.4c0-0.3,0.2-0.4,0.8-0.4c1.7,0,5.1,0.1,5.4,0.1c0.2,0,3.7-0.1,5.3-0.1
			c0.6,0,0.8,0.1,0.8,0.4c0,0.2-0.2,0.4-0.4,0.4c-0.4,0-0.7,0-1.3,0.1c-1.4,0.3-1.7,1-1.9,2.8c-0.1,1.6-0.1,3.1-0.1,11V219.1z"/>
		<path class="st0" d="M934.2,210.1c0-8,0-9.4-0.1-11c-0.1-1.7-0.4-2.6-2.2-2.8c-0.4-0.1-1.3-0.1-1.8-0.1c-0.2,0-0.4-0.2-0.4-0.4
			c0-0.3,0.2-0.4,0.8-0.4c2.4,0,5.8,0.1,6.2,0.1c0.4,0,11.5,0.1,12.7,0c1-0.1,2-0.2,2.4-0.3c0.2-0.1,0.5-0.2,0.7-0.2
			c0.2,0,0.2,0.2,0.2,0.5c0,0.4-0.3,1-0.4,2.4c-0.1,0.5-0.2,2.8-0.3,3.4c-0.1,0.2-0.2,0.5-0.5,0.5c-0.3,0-0.4-0.2-0.4-0.7
			c0-0.4-0.1-1.2-0.3-1.8c-0.4-0.8-0.9-1.2-3.8-1.6c-0.9-0.1-7.1-0.2-7.7-0.2c-0.2,0-0.3,0.2-0.3,0.5v13.9c0,0.4,0,0.5,0.3,0.5
			c0.7,0,7.7,0,8.9-0.1c1.3-0.1,2.1-0.2,2.6-0.7c0.4-0.4,0.6-0.7,0.8-0.7c0.2,0,0.3,0.1,0.3,0.4s-0.3,1.1-0.4,2.8
			c-0.1,1-0.2,3-0.2,3.3c0,0.4-0.1,1-0.5,1c-0.2,0-0.4-0.2-0.4-0.5c0-0.5,0-1-0.2-1.7c-0.2-0.7-0.7-1.3-2.7-1.6
			c-1.4-0.2-7.1-0.2-8-0.2c-0.3,0-0.4,0.2-0.4,0.4v4.3c0,1.7-0.1,7.7,0,8.7c0.1,3.4,1.1,4.1,6.3,4.1c1.4,0,3.9,0,5.3-0.5
			c1.4-0.6,2.1-1.5,2.4-3.6c0.1-0.6,0.2-0.8,0.5-0.8c0.3,0,0.4,0.4,0.4,0.8c0,0.4-0.4,3.9-0.7,4.9c-0.4,1.3-0.9,1.3-3,1.3
			c-4,0-7.1-0.1-9.2-0.2c-2.2-0.1-3.6-0.1-4.4-0.1c-0.1,0-1.1,0-2.3,0.1c-1,0.1-2.2,0.1-3.1,0.1c-0.5,0-0.8-0.1-0.8-0.4
			c0-0.2,0.1-0.4,0.4-0.4c0.5,0,1.1-0.2,1.6-0.2c1-0.2,1.1-1.2,1.4-2.7c0.3-2.1,0.3-6.2,0.3-11.1V210.1z"/>
	</g>
	<g>
		<path class="st1" d="M137.1,309.1h2.7v8.2c-1.1,0.9-2.5,1.6-4,2.1c-1.5,0.5-3,0.8-4.5,0.8c-2.2,0-4.2-0.5-6-1.5
			c-1.8-1-3.2-2.4-4.3-4.1c-1-1.8-1.6-3.7-1.6-5.8c0-2.1,0.5-4,1.6-5.7c1.1-1.7,2.5-3.1,4.3-4.1c1.8-1,3.8-1.5,6-1.5
			c1.6,0,3.1,0.3,4.6,0.8c1.5,0.6,2.8,1.3,3.9,2.3l-1.8,2.2c-0.9-0.8-1.9-1.5-3.1-1.9c-1.2-0.5-2.4-0.7-3.6-0.7
			c-1.6,0-3.1,0.4-4.4,1.1c-1.4,0.8-2.4,1.8-3.2,3.1c-0.8,1.3-1.2,2.8-1.2,4.3c0,1.6,0.4,3,1.2,4.4c0.8,1.3,1.9,2.4,3.2,3.2
			c1.4,0.8,2.8,1.2,4.4,1.2c0.9,0,1.9-0.2,2.9-0.5c1-0.3,1.9-0.7,2.7-1.3V309.1z"/>
		<path class="st1" d="M185.1,320l-4.5-7c-0.5,0-0.9,0.1-1.3,0.1h-5.7v7h-3.1v-22.3h8.8c2.9,0,5.1,0.7,6.6,2
			c1.6,1.3,2.3,3.2,2.3,5.6c0,1.8-0.4,3.3-1.3,4.6c-0.8,1.2-2.1,2.1-3.7,2.7l5.2,7.6H185.1z M179.4,310.3c1.9,0,3.4-0.4,4.4-1.3
			c1-0.8,1.5-2.1,1.5-3.7c0-1.6-0.5-2.8-1.5-3.6c-1-0.8-2.5-1.2-4.4-1.2h-5.7v9.8H179.4z"/>
		<path class="st1" d="M235.5,320l-2.4-5.4h-11.9l-2.3,5.4h-3.2l10-22.3h3.2l10,22.3H235.5z M222.5,311.8h9.5l-4.8-10.8L222.5,311.8
			z"/>
		<path class="st1" d="M283,297.7h3.1V320H283l-12.9-17.3V320H267v-22.3h3.1L283,315V297.7z"/>
		<path class="st1" d="M332.6,299.1c1.8,1,3.2,2.3,4.2,4c1,1.7,1.5,3.6,1.5,5.7c0,2.1-0.5,4-1.5,5.7c-1,1.7-2.4,3-4.2,4
			c-1.8,1-3.8,1.5-6,1.5h-9.1v-22.3h9.2C328.8,297.7,330.8,298.2,332.6,299.1z M331,316.2c1.3-0.7,2.3-1.7,3-3
			c0.7-1.3,1.1-2.7,1.1-4.3c0-1.6-0.4-3-1.1-4.3c-0.8-1.3-1.8-2.3-3.1-3c-1.3-0.7-2.7-1.1-4.3-1.1h-6v16.8h6.1
			C328.3,317.2,329.7,316.9,331,316.2z"/>
		<path class="st1" d="M392,297.7h3.7l8.2,15.7l8.2-15.7h3.7V320h-2.9l0-17.8l-8,15.5h-1.9l-8.1-15.5V320H392V297.7z"/>
		<path class="st1" d="M462.8,299c1.8,1,3.2,2.4,4.3,4.1c1.1,1.7,1.6,3.6,1.6,5.7c0,2.1-0.5,4-1.6,5.8c-1.1,1.8-2.5,3.1-4.3,4.1
			c-1.8,1-3.8,1.5-6,1.5c-2.2,0-4.2-0.5-6-1.5c-1.8-1-3.2-2.4-4.3-4.1c-1.1-1.8-1.6-3.7-1.6-5.8c0-2.1,0.5-4,1.6-5.7
			c1.1-1.7,2.5-3.1,4.3-4.1c1.8-1,3.8-1.5,6-1.5C459,297.5,461,298,462.8,299z M452.5,301.4c-1.3,0.8-2.4,1.8-3.2,3.1
			c-0.8,1.3-1.2,2.7-1.2,4.3c0,1.6,0.4,3,1.2,4.3c0.8,1.3,1.9,2.4,3.2,3.1c1.3,0.8,2.8,1.2,4.4,1.2c1.6,0,3-0.4,4.3-1.2
			c1.3-0.8,2.4-1.8,3.2-3.1c0.8-1.3,1.2-2.8,1.2-4.3c0-1.6-0.4-3-1.2-4.3c-0.8-1.3-1.8-2.3-3.2-3.1c-1.3-0.8-2.8-1.1-4.3-1.1
			C455.3,300.2,453.9,300.6,452.5,301.4z"/>
		<path class="st1" d="M514.1,297.7h3.1V320H514l-12.9-17.3V320H498v-22.3h3.1l12.9,17.3V297.7z"/>
		<path class="st1" d="M545.6,297.7h17.6v2.8h-7.3V320h-3.1v-19.5h-7.2V297.7z"/>
		<path class="st1" d="M606.8,299.7c1.5,1.3,2.3,3.2,2.3,5.6c0,2.5-0.8,4.4-2.3,5.8c-1.5,1.4-3.7,2.1-6.5,2.1h-5.6v7h-3.1v-22.3h8.7
			C603.1,297.7,605.3,298.4,606.8,299.7z M604.6,309c1-0.8,1.5-2.1,1.5-3.7c0-1.6-0.5-2.8-1.5-3.6c-1-0.8-2.5-1.2-4.4-1.2l-5.5,0
			v9.8h5.5C602.1,310.3,603.6,309.9,604.6,309z"/>
		<path class="st1" d="M638.1,297.7h15.6v2.8h-12.5v6.9h11.2v2.8h-11.2v7.1h12.9v2.8h-16V297.7z"/>
		<path class="st1" d="M684,297.7h3.1v19.6h9.8v2.8H684V297.7z"/>
		<path class="st1" d="M725.8,297.7h3.1v19.6h9.8v2.8h-12.9V297.7z"/>
		<path class="st1" d="M767.5,297.7h3.1V320h-3.1V297.7z"/>
		<path class="st1" d="M802,297.7h15.6v2.8h-12.5v6.9h11.2v2.8h-11.2v7.1H818v2.8h-16V297.7z"/>
		<path class="st1" d="M862.4,320l-4.5-7c-0.5,0-0.9,0.1-1.3,0.1H851v7h-3.1v-22.3h8.8c2.9,0,5.1,0.7,6.6,2c1.6,1.3,2.3,3.2,2.3,5.6
			c0,1.8-0.4,3.3-1.3,4.6c-0.8,1.2-2.1,2.1-3.7,2.7l5.2,7.6H862.4z M856.7,310.3c1.9,0,3.4-0.4,4.4-1.3c1-0.8,1.5-2.1,1.5-3.7
			c0-1.6-0.5-2.8-1.5-3.6c-1-0.8-2.5-1.2-4.4-1.2H851v9.8H856.7z"/>
	</g>
</g>
</svg>
