<svg xmlns="http://www.w3.org/2000/svg" width="94.168" height="122.712" viewBox="0 0 94.168 122.712">
  <g id="Groupe_1432" data-name="Groupe 1432" transform="translate(-883.767 -285.868)">
    <g id="Groupe_1427" data-name="Groupe 1427" transform="translate(884.145 285.868)">
      <g id="Groupe_1424" data-name="Groupe 1424" transform="translate(0 1.81)">
        <path id="Tracé_45568" data-name="Tracé 45568" d="M893.984,317.391c0,5.655,0,10.309.294,12.783.177,1.708.53,3,2.3,3.24a25.808,25.808,0,0,0,2.651.236c.353,0,.471.177.471.353,0,.295-.295.471-.943.471-3.24,0-6.951-.176-7.246-.176s-4.006.176-5.773.176c-.648,0-.943-.117-.943-.471,0-.177.118-.353.471-.353a9.131,9.131,0,0,0,1.767-.236c1.178-.236,1.473-1.532,1.709-3.24.294-2.474.294-7.128.294-12.783V307.023c0-9.19,0-10.84-.118-12.725-.118-2-.707-3-2-3.3a7.72,7.72,0,0,0-1.827-.236c-.236,0-.471-.118-.471-.354,0-.353.295-.471.943-.471,1.944,0,5.656.177,5.95.177s4.006-.177,5.773-.177c.648,0,.943.118.943.471,0,.236-.236.354-.471.354a8.758,8.758,0,0,0-1.473.176c-1.59.295-2.062,1.3-2.179,3.358-.118,1.885-.118,3.535-.118,12.725Z" transform="translate(-884.617 -289.939)" fill="#fff"/>
      </g>
      <g id="Groupe_1425" data-name="Groupe 1425" transform="translate(48.561 1.549)">
        <path id="Tracé_45569" data-name="Tracé 45569" d="M1016.482,289.352c12.931,0,22.586,8.161,22.586,21.552,0,12.873-9.08,23.506-22.931,23.506-15.747,0-22.3-12.241-22.3-22.586C993.838,302.513,1000.62,289.352,1016.482,289.352Zm1.207,42.874c5.172,0,15.862-2.989,15.862-19.713,0-13.793-8.391-21.207-17.471-21.207-9.6,0-16.782,6.322-16.782,18.908C999.3,323.605,1007.344,332.226,1017.688,332.226Z" transform="translate(-993.838 -289.352)" fill="#fff"/>
      </g>
      <g id="Groupe_1426" data-name="Groupe 1426" transform="translate(11.24 0)">
        <path id="Tracé_45570" data-name="Tracé 45570" d="M949.683,311.145c-1.908-2.728-3.965-5.367-5.673-8.212a9.481,9.481,0,0,1-1.351-7.131h0v0l0-.007c.074-.32,2.329-9.519,17.523-6.265a16.349,16.349,0,0,0-9.957-3.651,6.6,6.6,0,0,0-1.1.035,15.942,15.942,0,0,0-6.926,2.2l-.021.012c-.181.1-.363.213-.545.327v0a10.437,10.437,0,0,0-4.56,5.872,12.585,12.585,0,0,0,.724,8.595c1.684,4.169,4.4,7.8,6.933,11.536,3.262,4.82,6.609,9.655,5.342,15.8-.062.3-.179.734.2.9.573.253.9-.245,1.151-.563,2.444-3.041,3.754-6.352,2.862-10.206A26.963,26.963,0,0,0,949.683,311.145Z" transform="translate(-924.733 -285.868)" fill="#fff"/>
        <path id="Tracé_45571" data-name="Tracé 45571" d="M925.873,323.337c-2.7-3.846-5.376-7.7-6.24-12.345a18.99,18.99,0,0,1,.272-6.5,12.063,12.063,0,0,0-4.073,12.923c1.234,3.812,3.632,7.04,5.967,10.305a45.3,45.3,0,0,1,4.862,7.7,8.41,8.41,0,0,1-1.056,8.468c-2.122,2.408-6.579,4.946-15.705,2.991a16,16,0,0,0,13.077,3.335l.025.066a13.849,13.849,0,0,0,4.593-1.823c.284-.158.569-.324.857-.5l-.01-.073a11.367,11.367,0,0,0,3.949-13.02C931,330.633,928.44,326.99,925.873,323.337Z" transform="translate(-909.898 -296.214)" fill="#b3b3b3"/>
        <circle id="Ellipse_43" data-name="Ellipse 43" cx="0.572" cy="0.572" r="0.572" transform="translate(33.59 5.099)" fill="#b3b3b3"/>
        <circle id="Ellipse_44" data-name="Ellipse 44" cx="0.572" cy="0.572" r="0.572" transform="translate(28.915 44.655)" fill="#b3b3b3"/>
        <circle id="Ellipse_45" data-name="Ellipse 45" cx="0.858" cy="0.858" r="0.858" transform="translate(29.007 4.453)" fill="#b3b3b3"/>
        <circle id="Ellipse_46" data-name="Ellipse 46" cx="0.858" cy="0.858" r="0.858" transform="translate(31.165 40.773)" fill="#b3b3b3"/>
        <circle id="Ellipse_47" data-name="Ellipse 47" cx="1.143" cy="1.143" r="1.143" transform="translate(24.498 5.025)" fill="#b3b3b3"/>
        <circle id="Ellipse_48" data-name="Ellipse 48" cx="1.143" cy="1.143" r="1.143" transform="translate(31.69 36.31)" fill="#b3b3b3"/>
        <circle id="Ellipse_49" data-name="Ellipse 49" cx="1.429" cy="1.429" r="1.429" transform="translate(21.428 8.39)" fill="#b3b3b3"/>
        <circle id="Ellipse_50" data-name="Ellipse 50" cx="1.429" cy="1.429" r="1.429" transform="translate(31.137 30.686)" fill="#b3b3b3"/>
        <circle id="Ellipse_51" data-name="Ellipse 51" cx="1.715" cy="1.715" r="1.715" transform="translate(21.068 13.471)" fill="#b3b3b3"/>
        <circle id="Ellipse_52" data-name="Ellipse 52" cx="1.715" cy="1.715" r="1.715" transform="translate(28.26 24.619)" fill="#b3b3b3"/>
        <circle id="Ellipse_53" data-name="Ellipse 53" cx="2.001" cy="2.001" r="2.001" transform="translate(24.36 18.551)" fill="#b3b3b3"/>
      </g>
      <rect id="Rectangle_1058" data-name="Rectangle 1058" width="0.677" height="93.7" transform="translate(0.011 62.745) rotate(-90)" fill="#ccc"/>
    </g>
    <g id="Groupe_1428" data-name="Groupe 1428" transform="translate(883.767 353.411)">
      <path id="Tracé_45572" data-name="Tracé 45572" d="M886.74,446.562c0,1.693,0,3.076.083,3.8.062.516.124.846.661.929a7.383,7.383,0,0,0,.826.083.14.14,0,0,1,.145.145c0,.083-.083.144-.289.144-1.011,0-2.188-.062-2.271-.062-.1,0-1.238.062-1.8.062-.186,0-.289-.041-.289-.144a.14.14,0,0,1,.144-.145,2.6,2.6,0,0,0,.557-.083c.351-.083.413-.413.475-.929.082-.722.1-2.106.1-3.8v-3.1c0-2.725,0-3.22-.041-3.777-.041-.6-.186-.867-.578-.95a3.234,3.234,0,0,0-.557-.062.155.155,0,0,1-.144-.145c0-.1.083-.144.289-.144.6,0,1.734.041,1.837.041.083,0,1.26-.041,1.817-.041.207,0,.289.041.289.144a.175.175,0,0,1-.144.145,2.019,2.019,0,0,0-.454.041c-.5.1-.6.351-.64.97-.021.557-.021,1.053-.021,3.777Z" transform="translate(-883.767 -438.118)" fill="#fff"/>
      <path id="Tracé_45573" data-name="Tracé 45573" d="M902.417,448.956c.042,1.445.206,1.878.7,2a4.306,4.306,0,0,0,.908.1.141.141,0,0,1,.145.145c0,.1-.124.144-.33.144-1.032,0-1.755-.062-1.92-.062s-.929.062-1.755.062c-.186,0-.289-.021-.289-.144a.141.141,0,0,1,.145-.145,2.856,2.856,0,0,0,.743-.1c.454-.124.516-.6.516-2.188V438.717c0-.7.1-.887.248-.887.206,0,.516.351.7.537.289.289,2.931,3.1,5.739,5.986,1.8,1.858,3.736,3.943,4.293,4.521l-.186-8.794c-.021-1.135-.124-1.527-.681-1.631a5.819,5.819,0,0,0-.887-.082c-.124,0-.145-.1-.145-.165,0-.1.145-.124.351-.124.826,0,1.693.041,1.9.041s.805-.041,1.548-.041c.186,0,.33.021.33.124a.2.2,0,0,1-.206.165,2.049,2.049,0,0,0-.433.041c-.6.124-.64.474-.64,1.528l-.041,10.28c0,1.156-.021,1.26-.145,1.26-.186,0-.372-.145-1.383-1.074-.186-.165-2.807-2.745-4.727-4.748-2.106-2.208-4.15-4.355-4.707-4.975Z" transform="translate(-892.715 -437.809)" fill="#fff"/>
      <path id="Tracé_45574" data-name="Tracé 45574" d="M938.776,451.077c-.248-.124-.269-.186-.269-.661,0-.867.083-1.569.1-1.858,0-.185.041-.289.145-.289s.165.062.165.207a2.638,2.638,0,0,0,.062.64c.289,1.28,1.651,1.734,2.869,1.734,1.8,0,2.725-1.012,2.725-2.332,0-1.26-.682-1.858-2.291-3.055l-.826-.619c-1.961-1.466-2.6-2.539-2.6-3.757,0-2.064,1.631-3.3,4.025-3.3a8.8,8.8,0,0,1,1.878.206,2.357,2.357,0,0,0,.64.083c.145,0,.186.021.186.124a18.556,18.556,0,0,0-.083,1.858c0,.269-.021.393-.144.393s-.145-.083-.165-.227a3.238,3.238,0,0,0-.268-.867c-.124-.206-.723-.867-2.353-.867-1.321,0-2.415.661-2.415,1.9,0,1.115.557,1.755,2.353,2.973l.516.351c2.209,1.507,2.973,2.725,2.973,4.232a3.421,3.421,0,0,1-1.693,2.993,5.571,5.571,0,0,1-2.89.619A6.675,6.675,0,0,1,938.776,451.077Z" transform="translate(-914.169 -437.783)" fill="#fff"/>
      <path id="Tracé_45575" data-name="Tracé 45575" d="M967.408,446.252c0,1.693,0,3.076.083,3.8.062.516.144.846.7.929a6.929,6.929,0,0,0,.826.083.129.129,0,0,1,.144.145c0,.083-.083.144-.289.144-.991,0-2.146-.062-2.25-.062-.083,0-1.342.062-1.878.062-.207,0-.289-.041-.289-.144,0-.062.041-.124.144-.124a2.414,2.414,0,0,0,.537-.082c.372-.083.475-.434.537-.95.083-.723.083-2.106.083-3.8v-7.37l-2.622.042c-1.135.02-1.569.144-1.837.557a2.854,2.854,0,0,0-.289.558c-.041.144-.1.165-.186.165a.137.137,0,0,1-.124-.144c0-.186.351-1.754.393-1.9.021-.1.124-.33.185-.33a6.334,6.334,0,0,0,.805.206c.516.062,1.218.083,1.425.083h6.853a9.037,9.037,0,0,0,1.3-.083c.268-.041.433-.083.516-.083s.083.1.083.207c0,.537-.062,1.8-.062,2,0,.145-.083.227-.165.227s-.124-.062-.144-.31l-.021-.186c-.062-.536-.454-.929-2.188-.97l-2.271-.042Z" transform="translate(-926.495 -437.809)" fill="#fff"/>
      <path id="Tracé_45576" data-name="Tracé 45576" d="M995.2,446.562c0,1.693,0,3.076.083,3.8.062.516.124.846.661.929a7.388,7.388,0,0,0,.826.083.14.14,0,0,1,.145.145c0,.083-.083.144-.289.144-1.011,0-2.188-.062-2.271-.062-.1,0-1.238.062-1.8.062-.186,0-.289-.041-.289-.144a.14.14,0,0,1,.145-.145,2.606,2.606,0,0,0,.557-.083c.351-.083.412-.413.475-.929.082-.722.1-2.106.1-3.8v-3.1c0-2.725,0-3.22-.041-3.777-.041-.6-.186-.867-.578-.95a3.235,3.235,0,0,0-.557-.062.155.155,0,0,1-.144-.145c0-.1.083-.144.289-.144.6,0,1.734.041,1.837.041.083,0,1.26-.041,1.817-.041.207,0,.289.041.289.144a.175.175,0,0,1-.144.145,2.022,2.022,0,0,0-.454.041c-.5.1-.6.351-.64.97-.021.557-.021,1.053-.021,3.777Z" transform="translate(-944.003 -438.118)" fill="#fff"/>
      <path id="Tracé_45577" data-name="Tracé 45577" d="M1013.79,446.252c0,1.693,0,3.076.083,3.8.062.516.144.846.7.929a6.928,6.928,0,0,0,.826.083.129.129,0,0,1,.144.145c0,.083-.082.144-.289.144-.991,0-2.147-.062-2.25-.062-.083,0-1.342.062-1.878.062-.207,0-.29-.041-.29-.144,0-.062.042-.124.145-.124a2.415,2.415,0,0,0,.537-.082c.372-.083.475-.434.537-.95.083-.723.083-2.106.083-3.8v-7.37l-2.622.042c-1.135.02-1.569.144-1.837.557a2.854,2.854,0,0,0-.289.558c-.041.144-.1.165-.186.165a.137.137,0,0,1-.124-.144c0-.186.351-1.754.393-1.9.021-.1.124-.33.185-.33a6.328,6.328,0,0,0,.805.206c.516.062,1.218.083,1.425.083h6.853a9.034,9.034,0,0,0,1.3-.083c.268-.041.434-.083.516-.083s.083.1.083.207c0,.537-.062,1.8-.062,2,0,.145-.083.227-.165.227s-.124-.062-.145-.31l-.021-.186c-.062-.536-.454-.929-2.188-.97l-2.271-.042Z" transform="translate(-952.255 -437.809)" fill="#fff"/>
      <path id="Tracé_45578" data-name="Tracé 45578" d="M1037.554,443.465c0-2.725,0-3.22-.041-3.777s-.145-.888-.743-.97a5.773,5.773,0,0,0-.619-.041.175.175,0,0,1-.145-.145c0-.1.082-.144.289-.144.826,0,1.92.041,2.085.041s1.3-.041,1.837-.041c.207,0,.31.041.31.144a.177.177,0,0,1-.165.145,2.118,2.118,0,0,0-.454.041c-.475.082-.578.392-.619.97-.041.557-.041,1.053-.041,3.777v2.456c0,2.54.558,3.592,1.342,4.294a3.539,3.539,0,0,0,2.7.95,3.728,3.728,0,0,0,2.808-1.239c.846-1.011,1.032-2.456,1.032-4.253v-2.209c0-2.725-.021-3.22-.042-3.777s-.124-.888-.722-.97a5.786,5.786,0,0,0-.619-.041.155.155,0,0,1-.145-.145c0-.1.082-.144.289-.144.805,0,1.858.041,1.961.041.124,0,.991-.041,1.528-.041.206,0,.289.041.289.144a.155.155,0,0,1-.144.145,2.113,2.113,0,0,0-.454.041c-.5.1-.6.392-.64.97-.041.557-.021,1.053-.021,3.777v1.878c0,1.9-.247,4.025-1.693,5.264a5.5,5.5,0,0,1-3.8,1.28,5.669,5.669,0,0,1-3.778-1.239c-.887-.826-1.589-2.044-1.589-4.6Z" transform="translate(-968.319 -438.118)" fill="#fff"/>
      <path id="Tracé_45579" data-name="Tracé 45579" d="M1076.1,446.252c0,1.693,0,3.076.082,3.8.062.516.145.846.7.929a6.925,6.925,0,0,0,.826.083.129.129,0,0,1,.144.145c0,.083-.082.144-.289.144-.99,0-2.147-.062-2.25-.062-.082,0-1.341.062-1.878.062-.206,0-.289-.041-.289-.144,0-.062.041-.124.144-.124a2.4,2.4,0,0,0,.537-.082c.372-.083.475-.434.537-.95.082-.723.082-2.106.082-3.8v-7.37l-2.622.042c-1.135.02-1.569.144-1.837.557a2.819,2.819,0,0,0-.289.558c-.042.144-.1.165-.186.165a.137.137,0,0,1-.124-.144c0-.186.351-1.754.392-1.9.021-.1.124-.33.186-.33a6.315,6.315,0,0,0,.805.206c.516.062,1.218.083,1.424.083h6.853a9.027,9.027,0,0,0,1.3-.083c.268-.041.433-.083.516-.083s.083.1.083.207c0,.537-.062,1.8-.062,2,0,.145-.083.227-.165.227s-.124-.062-.144-.31l-.021-.186c-.062-.536-.454-.929-2.188-.97l-2.271-.042Z" transform="translate(-986.859 -437.809)" fill="#fff"/>
    </g>
    <g id="Groupe_1429" data-name="Groupe 1429" transform="translate(883.767 369.667)">
      <path id="Tracé_45580" data-name="Tracé 45580" d="M883.994,492.449c-.209-.1-.227-.157-.227-.559,0-.734.07-1.329.087-1.574,0-.157.035-.245.122-.245s.14.052.14.175a2.233,2.233,0,0,0,.052.542,2.262,2.262,0,0,0,2.43,1.469c1.521,0,2.308-.857,2.308-1.976,0-1.067-.577-1.574-1.941-2.588l-.7-.525c-1.661-1.241-2.2-2.151-2.2-3.182,0-1.749,1.381-2.8,3.41-2.8a7.474,7.474,0,0,1,1.591.175,1.985,1.985,0,0,0,.542.07c.122,0,.157.017.157.1a15.668,15.668,0,0,0-.07,1.573c0,.228-.017.333-.122.333s-.122-.07-.14-.192a2.739,2.739,0,0,0-.227-.735c-.1-.175-.612-.734-1.993-.734-1.119,0-2.046.56-2.046,1.609,0,.944.472,1.486,1.993,2.518l.437.3c1.871,1.276,2.518,2.308,2.518,3.585a2.9,2.9,0,0,1-1.434,2.535,4.716,4.716,0,0,1-2.448.525A5.65,5.65,0,0,1,883.994,492.449Z" transform="translate(-883.767 -478.146)" fill="#fff"/>
      <path id="Tracé_45581" data-name="Tracé 45581" d="M904.388,486c0-2.308,0-2.728-.035-3.2s-.123-.752-.63-.822a4.867,4.867,0,0,0-.524-.035.148.148,0,0,1-.122-.122c0-.088.07-.123.245-.123.7,0,1.626.035,1.766.035s1.1-.035,1.557-.035c.175,0,.262.035.262.123a.15.15,0,0,1-.14.122,1.784,1.784,0,0,0-.385.035c-.4.07-.49.332-.525.822-.035.472-.035.892-.035,3.2v2.081c0,2.151.472,3.042,1.136,3.637a3,3,0,0,0,2.291.8,3.157,3.157,0,0,0,2.378-1.049,5.477,5.477,0,0,0,.875-3.6V486c0-2.308-.018-2.728-.035-3.2s-.1-.752-.612-.822a4.856,4.856,0,0,0-.525-.035.131.131,0,0,1-.122-.122c0-.088.07-.123.245-.123.682,0,1.573.035,1.661.035.1,0,.839-.035,1.294-.035.175,0,.245.035.245.123a.131.131,0,0,1-.123.122,1.787,1.787,0,0,0-.385.035c-.42.087-.507.332-.542.822-.035.472-.017.892-.017,3.2v1.591c0,1.609-.21,3.41-1.434,4.459a4.656,4.656,0,0,1-3.218,1.084,4.8,4.8,0,0,1-3.2-1.049c-.752-.7-1.347-1.731-1.347-3.9Z" transform="translate(-894.492 -478.429)" fill="#fff"/>
      <path id="Tracé_45582" data-name="Tracé 45582" d="M934.946,486c0-2.308,0-2.728-.035-3.2-.035-.507-.122-.752-.63-.822a4.856,4.856,0,0,0-.525-.035.149.149,0,0,1-.122-.122c0-.088.07-.123.245-.123.7,0,1.661.035,1.783.035.332,0,1.486-.035,2.186-.035a4,4,0,0,1,2.938.839,2.505,2.505,0,0,1,.77,1.784c0,2.133-1.609,3.549-3.969,3.549a3.693,3.693,0,0,1-.437-.017.169.169,0,0,1-.157-.14c0-.122.088-.157.4-.157a2.584,2.584,0,0,0,2.85-2.4,3.02,3.02,0,0,0-.874-2.255,2.618,2.618,0,0,0-2.081-.717,5.236,5.236,0,0,0-.857.1c-.088.018-.123.123-.123.28v6.05c0,1.434,0,2.605.07,3.218.052.437.14.717.612.786a5.6,5.6,0,0,0,.682.07.119.119,0,0,1,.122.122c0,.07-.07.122-.245.122-.839,0-1.854-.052-1.924-.052-.052,0-1.049.052-1.521.052-.157,0-.245-.035-.245-.122a.119.119,0,0,1,.123-.122,2.2,2.2,0,0,0,.472-.07c.3-.07.332-.349.4-.786a30.321,30.321,0,0,0,.088-3.218Z" transform="translate(-911.463 -478.429)" fill="#fff"/>
      <path id="Tracé_45583" data-name="Tracé 45583" d="M957.441,481.916c0-2.308,0-2.728-.035-3.2-.035-.507-.123-.752-.63-.822a4.879,4.879,0,0,0-.525-.035.148.148,0,0,1-.122-.122c0-.088.07-.123.245-.123.7,0,1.7.035,1.784.035.105,0,3.322.018,3.672,0,.3-.017.577-.07.7-.088a.99.99,0,0,1,.21-.07c.052,0,.07.07.07.14,0,.1-.088.28-.122.7-.018.14-.052.8-.088.979-.017.07-.07.157-.14.157-.087,0-.122-.07-.122-.192a1.629,1.629,0,0,0-.087-.525c-.1-.245-.262-.35-1.1-.455-.262-.035-2.046-.052-2.221-.052-.07,0-.087.052-.087.157v4.039c0,.1,0,.157.087.157.193,0,2.221,0,2.57-.035.367-.035.595-.052.752-.21.1-.1.175-.192.227-.192s.087.035.087.122a8.2,8.2,0,0,0-.122.822c-.035.3-.07.857-.07.962,0,.123-.035.28-.14.28-.07,0-.1-.052-.1-.14a1.318,1.318,0,0,0-.07-.489c-.052-.21-.193-.385-.787-.455-.42-.052-2.063-.07-2.326-.07a.092.092,0,0,0-.1.1v1.241c0,.507-.018,2.238,0,2.536.035,1,.314,1.189,1.836,1.189a5.125,5.125,0,0,0,1.539-.157,1.128,1.128,0,0,0,.7-1.032c.035-.175.07-.227.157-.227s.1.122.1.227a12.4,12.4,0,0,1-.21,1.434c-.1.385-.262.385-.857.385-1.154,0-2.046-.035-2.675-.053-.647-.035-1.049-.035-1.277-.035-.035,0-.333,0-.665.018-.3.017-.647.035-.891.035-.158,0-.245-.035-.245-.122a.119.119,0,0,1,.122-.122,4.333,4.333,0,0,0,.472-.07c.3-.052.332-.349.4-.786a30.364,30.364,0,0,0,.087-3.218Zm4.774-6.644c.087.157,0,.209-.07.209a2.332,2.332,0,0,0-.525,0,11.207,11.207,0,0,0-2.658.734,1.076,1.076,0,0,1-.262.088.1.1,0,0,1-.088-.1c0-.052.035-.088.123-.14.629-.437,2.256-1.416,2.378-1.486.3-.175.4-.227.49-.227.052,0,.087.035.175.157C961.9,474.677,962.022,474.922,962.215,475.272Z" transform="translate(-923.957 -474.345)" fill="#fff"/>
      <path id="Tracé_45584" data-name="Tracé 45584" d="M979.111,486c0-2.308,0-2.728-.035-3.2-.035-.507-.122-.752-.63-.822a4.863,4.863,0,0,0-.525-.035.148.148,0,0,1-.122-.122c0-.088.07-.123.245-.123.7,0,1.731.035,1.818.035.157,0,1.451-.035,1.923-.035a5.037,5.037,0,0,1,2.867.647,2.606,2.606,0,0,1,1.067,2.028,4.344,4.344,0,0,1-1.889,3.392c1.259,1.574,2.326,2.92,3.217,3.847A2.906,2.906,0,0,0,989.3,492.7a.135.135,0,0,1,.14.122c0,.088-.087.122-.367.122h-.962a3.1,3.1,0,0,1-1.644-.3,7.857,7.857,0,0,1-2.1-2.186c-.647-.8-1.329-1.766-1.661-2.168a.236.236,0,0,0-.21-.088l-1.958-.035c-.07,0-.105.035-.105.122v.35c0,1.434,0,2.588.07,3.2.053.437.14.717.612.786a5.606,5.606,0,0,0,.682.07.109.109,0,0,1,.122.122c0,.07-.07.122-.245.122-.839,0-1.818-.052-1.889-.052-.017,0-1.049.052-1.521.052-.157,0-.245-.035-.245-.122a.119.119,0,0,1,.123-.122,2.188,2.188,0,0,0,.472-.07c.3-.07.333-.349.4-.786a30.321,30.321,0,0,0,.088-3.218Zm1.328,1.259a.22.22,0,0,0,.105.192,5.207,5.207,0,0,0,1.7.228,2,2,0,0,0,1.154-.262,2.653,2.653,0,0,0,.927-2.273c0-1.854-1.014-2.92-2.658-2.92a6.681,6.681,0,0,0-1.1.088.191.191,0,0,0-.123.175Z" transform="translate(-935.992 -478.429)" fill="#fff"/>
      <path id="Tracé_45585" data-name="Tracé 45585" d="M1007.178,488.623c0,1.434,0,2.605.07,3.218.052.437.1.717.56.786a6.208,6.208,0,0,0,.7.07.119.119,0,0,1,.122.122c0,.07-.07.122-.245.122-.857,0-1.854-.052-1.924-.052-.087,0-1.049.052-1.521.052-.157,0-.245-.035-.245-.122a.119.119,0,0,1,.123-.122,2.194,2.194,0,0,0,.472-.07c.3-.07.349-.349.4-.786.07-.612.088-1.784.088-3.218V486c0-2.308,0-2.728-.035-3.2-.035-.507-.157-.734-.489-.8a2.731,2.731,0,0,0-.472-.052.131.131,0,0,1-.122-.122c0-.088.07-.123.245-.123.507,0,1.469.035,1.556.035.07,0,1.067-.035,1.539-.035.175,0,.245.035.245.123a.148.148,0,0,1-.122.122,1.712,1.712,0,0,0-.385.035c-.419.087-.507.3-.542.822-.017.472-.017.892-.017,3.2Z" transform="translate(-950.91 -478.429)" fill="#fff"/>
      <path id="Tracé_45586" data-name="Tracé 45586" d="M1020.051,485.848c0-2.308,0-2.728-.035-3.2-.035-.507-.122-.752-.63-.822a4.854,4.854,0,0,0-.525-.035.148.148,0,0,1-.122-.122c0-.088.07-.123.245-.123.7,0,1.7.035,1.783.035.1,0,3.322.018,3.672,0,.3-.017.577-.07.7-.088a.99.99,0,0,1,.21-.07c.052,0,.07.07.07.14,0,.1-.087.28-.122.7-.017.14-.052.8-.088.979-.017.07-.07.157-.14.157-.087,0-.122-.07-.122-.192a1.63,1.63,0,0,0-.088-.525c-.1-.245-.262-.35-1.1-.455-.262-.035-2.046-.052-2.22-.052-.07,0-.087.052-.087.157v4.039c0,.1,0,.157.087.157.192,0,2.22,0,2.57-.035.367-.035.595-.052.752-.21.1-.1.175-.192.227-.192s.087.035.087.122a8.059,8.059,0,0,0-.122.822c-.035.3-.07.857-.07.962,0,.123-.035.28-.14.28-.07,0-.1-.052-.1-.14a1.316,1.316,0,0,0-.07-.49c-.052-.21-.192-.385-.787-.455-.419-.052-2.063-.07-2.325-.07a.092.092,0,0,0-.1.1v1.241c0,.507-.017,2.238,0,2.536.035,1,.315,1.189,1.836,1.189a5.119,5.119,0,0,0,1.539-.157,1.127,1.127,0,0,0,.7-1.031c.035-.175.07-.227.157-.227s.1.122.1.227a12.307,12.307,0,0,1-.21,1.434c-.1.385-.262.385-.857.385-1.154,0-2.046-.035-2.675-.052-.647-.035-1.049-.035-1.276-.035-.035,0-.332,0-.664.018-.3.017-.647.035-.892.035-.157,0-.245-.035-.245-.122a.119.119,0,0,1,.123-.122,4.357,4.357,0,0,0,.472-.07c.3-.052.332-.349.4-.786a30.366,30.366,0,0,0,.087-3.218Z" transform="translate(-958.729 -478.277)" fill="#fff"/>
      <path id="Tracé_45587" data-name="Tracé 45587" d="M1039.95,486c0-2.308,0-2.728-.035-3.2s-.123-.752-.63-.822a4.867,4.867,0,0,0-.525-.035.148.148,0,0,1-.122-.122c0-.088.07-.123.245-.123.7,0,1.626.035,1.766.035s1.1-.035,1.556-.035c.175,0,.262.035.262.123a.15.15,0,0,1-.14.122,1.785,1.785,0,0,0-.385.035c-.4.07-.49.332-.525.822-.035.472-.035.892-.035,3.2v2.081c0,2.151.472,3.042,1.136,3.637a3,3,0,0,0,2.291.8,3.157,3.157,0,0,0,2.378-1.049,5.479,5.479,0,0,0,.875-3.6V486c0-2.308-.018-2.728-.035-3.2s-.1-.752-.612-.822a4.862,4.862,0,0,0-.524-.035.131.131,0,0,1-.123-.122c0-.088.07-.123.245-.123.682,0,1.574.035,1.661.035.1,0,.839-.035,1.294-.035.175,0,.245.035.245.123a.131.131,0,0,1-.122.122,1.783,1.783,0,0,0-.385.035c-.42.087-.507.332-.542.822-.035.472-.017.892-.017,3.2v1.591c0,1.609-.21,3.41-1.434,4.459a4.656,4.656,0,0,1-3.218,1.084,4.8,4.8,0,0,1-3.2-1.049c-.752-.7-1.346-1.731-1.346-3.9Z" transform="translate(-969.782 -478.429)" fill="#fff"/>
      <path id="Tracé_45588" data-name="Tracé 45588" d="M1070.508,486c0-2.308,0-2.728-.035-3.2-.035-.507-.122-.752-.63-.822a4.856,4.856,0,0,0-.525-.035.149.149,0,0,1-.122-.122c0-.088.07-.123.245-.123.7,0,1.731.035,1.818.035.157,0,1.451-.035,1.923-.035a5.038,5.038,0,0,1,2.868.647,2.607,2.607,0,0,1,1.066,2.028,4.343,4.343,0,0,1-1.889,3.392c1.259,1.574,2.326,2.92,3.218,3.847a2.9,2.9,0,0,0,2.255,1.084.135.135,0,0,1,.14.122c0,.088-.088.122-.367.122h-.962a3.1,3.1,0,0,1-1.644-.3,7.852,7.852,0,0,1-2.1-2.186c-.647-.8-1.329-1.766-1.661-2.168a.236.236,0,0,0-.209-.088l-1.958-.035c-.07,0-.1.035-.1.122v.35c0,1.434,0,2.588.07,3.2.052.437.14.717.612.786a5.61,5.61,0,0,0,.682.07.109.109,0,0,1,.122.122c0,.07-.07.122-.245.122-.839,0-1.818-.052-1.889-.052-.017,0-1.049.052-1.521.052-.157,0-.245-.035-.245-.122a.118.118,0,0,1,.122-.122,2.2,2.2,0,0,0,.472-.07c.3-.07.332-.349.4-.786a30.279,30.279,0,0,0,.088-3.218Zm1.329,1.259a.219.219,0,0,0,.1.192,5.2,5.2,0,0,0,1.7.228,2,2,0,0,0,1.154-.262,2.653,2.653,0,0,0,.927-2.273c0-1.854-1.014-2.92-2.658-2.92a6.685,6.685,0,0,0-1.1.088.19.19,0,0,0-.122.175Z" transform="translate(-986.753 -478.429)" fill="#fff"/>
    </g>
    <g id="Groupe_1430" data-name="Groupe 1430" transform="translate(883.767 387.76)">
      <path id="Tracé_45589" data-name="Tracé 45589" d="M888.733,520.641c2.817,0,4.951,1.721,4.951,4.539a4.846,4.846,0,0,1-5.022,4.937,4.639,4.639,0,0,1-4.895-4.752A4.79,4.79,0,0,1,888.733,520.641Zm.285,8.978c1.124,0,3.386-.6,3.386-4.1,0-2.9-1.764-4.425-3.742-4.425-2.091,0-3.6,1.309-3.6,3.942C885.062,527.855,886.755,529.619,889.017,529.619Z" transform="translate(-883.767 -518.151)" fill="#fff"/>
      <path id="Tracé_45590" data-name="Tracé 45590" d="M910.225,529.772c-.171-.086-.185-.128-.185-.455,0-.6.057-1.081.071-1.28,0-.128.028-.2.1-.2s.114.043.114.142a1.812,1.812,0,0,0,.043.441,1.841,1.841,0,0,0,1.978,1.2c1.238,0,1.878-.7,1.878-1.608,0-.868-.469-1.281-1.58-2.106l-.569-.427c-1.352-1.011-1.793-1.75-1.793-2.59,0-1.423,1.124-2.276,2.774-2.276a6.058,6.058,0,0,1,1.3.142,1.625,1.625,0,0,0,.441.057c.1,0,.128.014.128.085a12.806,12.806,0,0,0-.057,1.281c0,.185-.014.27-.1.27s-.1-.057-.114-.156a2.245,2.245,0,0,0-.185-.6c-.085-.142-.5-.6-1.622-.6-.911,0-1.665.455-1.665,1.309,0,.768.384,1.209,1.622,2.049l.356.242c1.522,1.039,2.049,1.878,2.049,2.917a2.357,2.357,0,0,1-1.167,2.063,3.838,3.838,0,0,1-1.992.427A4.6,4.6,0,0,1,910.225,529.772Z" transform="translate(-898.359 -518.133)" fill="#fff"/>
      <path id="Tracé_45591" data-name="Tracé 45591" d="M929.96,526.446c0,1.167,0,2.12.057,2.618.043.356.1.583.484.64a4.8,4.8,0,0,0,.569.057.089.089,0,0,1,.1.1c0,.057-.057.1-.2.1-.683,0-1.479-.043-1.551-.043s-.925.043-1.295.043c-.142,0-.2-.028-.2-.1,0-.043.029-.085.1-.085a1.66,1.66,0,0,0,.37-.057c.257-.057.328-.3.37-.655.057-.5.057-1.451.057-2.618v-5.08l-1.807.029c-.783.014-1.081.1-1.266.384a1.953,1.953,0,0,0-.2.384c-.029.1-.071.114-.128.114a.1.1,0,0,1-.085-.1c0-.128.242-1.209.27-1.309.014-.071.085-.228.128-.228a4.363,4.363,0,0,0,.555.142c.356.043.84.057.982.057h4.724a6.223,6.223,0,0,0,.9-.057c.185-.028.3-.057.356-.057s.057.071.057.142c0,.37-.043,1.238-.043,1.38,0,.1-.057.156-.114.156s-.085-.043-.1-.214l-.014-.128c-.043-.37-.313-.64-1.508-.669l-1.565-.029Z" transform="translate(-906.854 -518.151)" fill="#fff"/>
      <path id="Tracé_45592" data-name="Tracé 45592" d="M947.779,521.2c0-1.878,0-2.219-.029-2.6-.028-.413-.1-.612-.512-.669a4.033,4.033,0,0,0-.427-.029.121.121,0,0,1-.1-.1c0-.071.057-.1.2-.1.569,0,1.38.028,1.452.028s2.7.014,2.988,0c.242-.014.469-.057.569-.071a.806.806,0,0,1,.171-.057c.043,0,.057.057.057.114,0,.085-.071.228-.1.569-.014.114-.043.654-.071.8-.014.057-.057.128-.114.128s-.1-.057-.1-.156a1.326,1.326,0,0,0-.071-.427c-.086-.2-.214-.284-.9-.37-.214-.028-1.665-.043-1.807-.043-.057,0-.071.043-.071.128v3.287c0,.085,0,.128.071.128.157,0,1.807,0,2.091-.028s.484-.043.612-.171c.085-.085.142-.156.185-.156s.071.028.071.1a6.587,6.587,0,0,0-.1.669c-.028.242-.057.7-.057.782s-.029.228-.114.228c-.057,0-.085-.043-.085-.114a1.072,1.072,0,0,0-.057-.4c-.043-.171-.157-.313-.64-.37-.341-.043-1.679-.057-1.893-.057a.074.074,0,0,0-.085.085v1.01c0,.413-.014,1.821,0,2.063.028.811.256.967,1.494.967a4.171,4.171,0,0,0,1.252-.128.918.918,0,0,0,.569-.839c.029-.142.057-.185.128-.185s.086.1.086.185a10,10,0,0,1-.171,1.167c-.085.313-.213.313-.7.313-.939,0-1.665-.029-2.177-.043s-.854-.029-1.038-.029c-.029,0-.271,0-.541.014-.242.014-.527.028-.726.028-.128,0-.2-.028-.2-.1a.1.1,0,0,1,.1-.1,3.587,3.587,0,0,0,.384-.057c.242-.043.27-.285.327-.64a24.64,24.64,0,0,0,.071-2.618Zm3.885-5.406c.071.128,0,.171-.057.171a1.888,1.888,0,0,0-.427,0,9.133,9.133,0,0,0-2.163.6.865.865,0,0,1-.213.071.08.08,0,0,1-.071-.085c0-.043.028-.071.1-.114.512-.356,1.835-1.152,1.935-1.209.242-.142.327-.185.4-.185.043,0,.071.028.142.128C951.408,515.311,951.507,515.511,951.664,515.8Z" transform="translate(-918.726 -515.041)" fill="#fff"/>
      <path id="Tracé_45593" data-name="Tracé 45593" d="M968.51,520.641c2.817,0,4.951,1.721,4.951,4.539a4.846,4.846,0,0,1-5.022,4.937,4.639,4.639,0,0,1-4.894-4.752A4.79,4.79,0,0,1,968.51,520.641Zm.285,8.978c1.124,0,3.386-.6,3.386-4.1,0-2.9-1.764-4.425-3.742-4.425-2.091,0-3.6,1.309-3.6,3.942C964.84,527.855,966.533,529.619,968.795,529.619Z" transform="translate(-928.075 -518.151)" fill="#fff"/>
      <path id="Tracé_45594" data-name="Tracé 45594" d="M990.405,524.525c0-1.878,0-2.219-.028-2.6-.029-.413-.1-.612-.512-.669a4.016,4.016,0,0,0-.427-.029.121.121,0,0,1-.1-.1c0-.071.057-.1.2-.1.569,0,1.352.029,1.451.029.27,0,1.209-.029,1.778-.029a3.258,3.258,0,0,1,2.39.683,2.039,2.039,0,0,1,.626,1.451c0,1.736-1.309,2.889-3.23,2.889a2.964,2.964,0,0,1-.356-.014.137.137,0,0,1-.128-.114c0-.1.071-.128.327-.128a2.1,2.1,0,0,0,2.319-1.95,2.457,2.457,0,0,0-.712-1.835,2.13,2.13,0,0,0-1.693-.583,4.241,4.241,0,0,0-.7.085c-.071.014-.1.1-.1.228v4.923c0,1.167,0,2.12.057,2.618.043.356.114.583.5.64a4.585,4.585,0,0,0,.555.057.1.1,0,0,1,.1.1c0,.057-.057.1-.2.1-.683,0-1.508-.043-1.565-.043s-.854.043-1.238.043c-.128,0-.2-.028-.2-.1a.1.1,0,0,1,.1-.1,1.791,1.791,0,0,0,.384-.057c.242-.057.271-.285.327-.64a24.68,24.68,0,0,0,.071-2.618Z" transform="translate(-942.4 -518.364)" fill="#fff"/>
      <path id="Tracé_45595" data-name="Tracé 45595" d="M1007.869,520.983c.156-.4.214-.469.3-.469.128,0,.171.171.3.441.228.512,2.234,5.506,3,7.342.455,1.081.8,1.238,1.067,1.323a1.741,1.741,0,0,0,.5.071c.072,0,.156.028.156.1s-.142.1-.285.1c-.185,0-1.11,0-1.978-.029-.242-.014-.441-.014-.441-.085s.028-.057.085-.085a.227.227,0,0,0,.114-.327l-1.124-2.774c-.028-.057-.043-.071-.114-.071h-2.888a.132.132,0,0,0-.128.1l-.711,1.935a2.5,2.5,0,0,0-.185.811c0,.242.213.327.427.327h.114c.1,0,.128.043.128.1s-.071.1-.185.1c-.3,0-.982-.043-1.124-.043s-.754.043-1.266.043c-.157,0-.242-.029-.242-.1a.11.11,0,0,1,.114-.1,3.5,3.5,0,0,0,.37-.028c.569-.071.811-.5,1.053-1.11Zm1.394,5.037c.057,0,.057-.029.043-.085l-1.238-3.315q-.107-.277-.214,0l-1.167,3.315q-.021.085.043.085Z" transform="translate(-950.203 -518.08)" fill="#fff"/>
      <path id="Tracé_45596" data-name="Tracé 45596" d="M1027.468,526.446c0,1.167,0,2.12.057,2.618.042.356.1.583.484.64a4.788,4.788,0,0,0,.569.057.089.089,0,0,1,.1.1c0,.057-.056.1-.2.1-.683,0-1.48-.043-1.551-.043-.056,0-.925.043-1.295.043-.142,0-.2-.028-.2-.1,0-.043.028-.085.1-.085a1.661,1.661,0,0,0,.37-.057c.256-.057.327-.3.37-.655.057-.5.057-1.451.057-2.618v-5.08l-1.807.029c-.783.014-1.081.1-1.266.384a1.962,1.962,0,0,0-.2.384c-.028.1-.071.114-.128.114a.1.1,0,0,1-.085-.1c0-.128.242-1.209.27-1.309.014-.071.085-.228.128-.228a4.363,4.363,0,0,0,.555.142c.356.043.839.057.982.057h4.724a6.222,6.222,0,0,0,.9-.057c.185-.028.3-.057.356-.057s.057.071.057.142c0,.37-.042,1.238-.042,1.38,0,.1-.057.156-.114.156s-.085-.043-.1-.214l-.014-.128c-.043-.37-.313-.64-1.508-.669l-1.565-.029Z" transform="translate(-961.009 -518.151)" fill="#fff"/>
      <path id="Tracé_45597" data-name="Tracé 45597" d="M1052.927,526.66c0,1.167.015,2.12.071,2.618.042.356.071.583.455.64a4.882,4.882,0,0,0,.555.057.1.1,0,0,1,.114.1c0,.057-.071.1-.214.1-.683,0-1.479-.043-1.551-.043s-.868.043-1.238.043c-.142,0-.2-.028-.2-.1a.1.1,0,0,1,.1-.1,1.664,1.664,0,0,0,.37-.057c.256-.057.3-.3.342-.654.057-.5.057-1.409.057-2.575v-1.209c0-.057-.028-.071-.071-.071H1046.5c-.042,0-.07.014-.07.071v1.209c0,1.167,0,2.091.057,2.589.043.356.086.583.455.64a5.094,5.094,0,0,0,.569.057.1.1,0,0,1,.1.1c0,.057-.057.1-.2.1-.7,0-1.494-.043-1.551-.043s-.868.043-1.252.043c-.128,0-.2-.028-.2-.1a.1.1,0,0,1,.1-.1,1.788,1.788,0,0,0,.384-.057c.242-.057.271-.285.327-.64a24.512,24.512,0,0,0,.072-2.618v-2.135c0-1.878,0-2.219-.029-2.6-.029-.413-.1-.612-.512-.669a4.014,4.014,0,0,0-.427-.029.12.12,0,0,1-.1-.1c0-.071.057-.1.2-.1.57,0,1.366.029,1.437.029s.854-.029,1.238-.029c.142,0,.2.029.2.1a.121.121,0,0,1-.1.1,1.39,1.39,0,0,0-.313.029c-.341.071-.413.242-.441.669-.014.384-.014.754-.014,2.632v.257c0,.071.028.071.07.071h5.222c.043,0,.071,0,.071-.071v-.257c0-1.878-.014-2.248-.028-2.632-.029-.413-.085-.612-.5-.669a4.018,4.018,0,0,0-.427-.029.107.107,0,0,1-.1-.1c0-.071.057-.1.2-.1.555,0,1.366.029,1.423.029s.868-.029,1.238-.029c.143,0,.213.029.213.1a.122.122,0,0,1-.114.1,1.456,1.456,0,0,0-.313.029c-.327.071-.4.242-.427.669-.029.384-.029.726-.029,2.6Z" transform="translate(-972.881 -518.364)" fill="#fff"/>
      <path id="Tracé_45598" data-name="Tracé 45598" d="M1073.085,526.66c0,1.167,0,2.12.057,2.618.042.356.085.583.455.64a5.093,5.093,0,0,0,.569.057.1.1,0,0,1,.1.1c0,.057-.057.1-.2.1-.7,0-1.508-.043-1.565-.043s-.854.043-1.238.043c-.128,0-.2-.028-.2-.1a.1.1,0,0,1,.1-.1,1.793,1.793,0,0,0,.384-.057c.242-.057.284-.285.327-.64.057-.5.071-1.451.071-2.618v-2.135c0-1.878,0-2.219-.029-2.6-.028-.413-.128-.6-.4-.654a2.241,2.241,0,0,0-.384-.043.107.107,0,0,1-.1-.1c0-.071.057-.1.2-.1.412,0,1.2.029,1.266.029s.868-.029,1.252-.029c.142,0,.2.029.2.1a.12.12,0,0,1-.1.1,1.392,1.392,0,0,0-.313.029c-.341.071-.413.242-.441.669-.014.384-.014.726-.014,2.6Z" transform="translate(-987.775 -518.364)" fill="#fff"/>
      <path id="Tracé_45599" data-name="Tracé 45599" d="M1083.56,524.4c0-1.878,0-2.219-.029-2.6-.028-.413-.1-.612-.512-.669a4.038,4.038,0,0,0-.427-.028.121.121,0,0,1-.1-.1c0-.071.057-.1.2-.1.569,0,1.38.028,1.451.028s2.7.014,2.988,0c.242-.014.469-.057.569-.071a.806.806,0,0,1,.171-.057c.043,0,.057.057.057.114,0,.085-.071.228-.1.569-.014.114-.042.654-.071.8-.014.057-.057.128-.114.128s-.1-.057-.1-.156a1.32,1.32,0,0,0-.071-.427c-.085-.2-.213-.285-.9-.37-.213-.028-1.665-.043-1.807-.043-.057,0-.072.043-.072.128v3.287c0,.085,0,.128.072.128.156,0,1.807,0,2.092-.028s.483-.043.612-.171c.085-.085.143-.156.185-.156s.071.028.071.1a6.576,6.576,0,0,0-.1.669c-.028.242-.057.7-.057.782s-.029.228-.114.228c-.057,0-.085-.043-.085-.114a1.074,1.074,0,0,0-.057-.4c-.043-.171-.156-.313-.64-.37-.342-.043-1.679-.057-1.892-.057-.072,0-.086.042-.086.085v1.01c0,.413-.014,1.821,0,2.063.029.811.257.967,1.494.967a4.17,4.17,0,0,0,1.252-.128.918.918,0,0,0,.569-.839c.029-.142.057-.185.128-.185s.085.1.085.185a10.047,10.047,0,0,1-.171,1.167c-.085.313-.213.313-.7.313-.939,0-1.665-.029-2.177-.043s-.853-.029-1.039-.029c-.028,0-.27,0-.541.014-.242.014-.526.028-.726.028-.128,0-.2-.028-.2-.1a.1.1,0,0,1,.1-.1,3.574,3.574,0,0,0,.384-.057c.242-.043.271-.284.327-.64a24.559,24.559,0,0,0,.072-2.618Z" transform="translate(-994.137 -518.24)" fill="#fff"/>
    </g>
    <g id="Groupe_1431" data-name="Groupe 1431" transform="translate(884.168 405.731)">
      <path id="Tracé_45600" data-name="Tracé 45600" d="M886.869,556.914h.342v1.027a1.809,1.809,0,0,1-1.068.368,1.5,1.5,0,0,1-.746-.19,1.413,1.413,0,0,1-.534-.519,1.39,1.39,0,0,1-.2-.722,1.358,1.358,0,0,1,.2-.717,1.419,1.419,0,0,1,.54-.513,1.548,1.548,0,0,1,.758-.188,1.636,1.636,0,0,1,.574.1,1.554,1.554,0,0,1,.486.284l-.221.28a1.239,1.239,0,0,0-.389-.242,1.224,1.224,0,0,0-.449-.086,1.106,1.106,0,0,0-.556.144,1.07,1.07,0,0,0-.4.392,1.075,1.075,0,0,0,0,1.089,1.109,1.109,0,0,0,.959.541,1.194,1.194,0,0,0,.36-.058,1.361,1.361,0,0,0,.341-.162Z" transform="translate(-884.668 -555.46)" fill="#b3b3b3"/>
      <path id="Tracé_45601" data-name="Tracé 45601" d="M900.875,558.311l-.56-.879c-.064.005-.117.008-.157.008h-.718v.871h-.387v-2.8h1.1a1.253,1.253,0,0,1,.828.246.862.862,0,0,1,.292.7.984.984,0,0,1-.159.571.89.89,0,0,1-.458.336l.657.947Zm-.717-1.219a.859.859,0,0,0,.556-.158.566.566,0,0,0,.193-.465.545.545,0,0,0-.193-.454.879.879,0,0,0-.556-.154h-.718v1.231Z" transform="translate(-892.657 -555.49)" fill="#b3b3b3"/>
      <path id="Tracé_45602" data-name="Tracé 45602" d="M914.231,558.311l-.3-.679h-1.487l-.294.679h-.407l1.253-2.8h.4l1.249,2.8Zm-1.632-1.027h1.185l-.6-1.359Z" transform="translate(-899.706 -555.49)" fill="#b3b3b3"/>
      <path id="Tracé_45603" data-name="Tracé 45603" d="M928.227,555.513h.383v2.8h-.391l-1.612-2.166v2.166h-.387v-2.8h.391l1.616,2.17Z" transform="translate(-907.746 -555.49)" fill="#b3b3b3"/>
      <path id="Tracé_45604" data-name="Tracé 45604" d="M942.326,555.695a1.344,1.344,0,0,1,.522.5,1.379,1.379,0,0,1,.189.715,1.356,1.356,0,0,1-.717,1.217,1.542,1.542,0,0,1-.75.182h-1.136v-2.8h1.148A1.526,1.526,0,0,1,942.326,555.695Zm-.2,2.132a1,1,0,0,0,.379-.376,1.1,1.1,0,0,0,0-1.075,1.024,1.024,0,0,0-.385-.378,1.085,1.085,0,0,0-.542-.138h-.754v2.1h.77A1.067,1.067,0,0,0,942.124,557.827Z" transform="translate(-915.64 -555.49)" fill="#b3b3b3"/>
      <path id="Tracé_45605" data-name="Tracé 45605" d="M961.425,555.513h.459l1.032,1.967,1.024-1.967h.464v2.8h-.363l0-2.234-1,1.938H962.8l-1.012-1.938v2.234h-.359Z" transform="translate(-927.298 -555.49)" fill="#b3b3b3"/>
      <path id="Tracé_45606" data-name="Tracé 45606" d="M978.595,555.648a1.424,1.424,0,0,1,.538.513,1.358,1.358,0,0,1,.2.717,1.38,1.38,0,0,1-.2.722,1.425,1.425,0,0,1-.538.519,1.567,1.567,0,0,1-1.5,0,1.421,1.421,0,0,1-.538-.519,1.381,1.381,0,0,1-.2-.722,1.359,1.359,0,0,1,.2-.717,1.428,1.428,0,0,1,.536-.513,1.588,1.588,0,0,1,1.5,0Zm-1.29.3a1.1,1.1,0,0,0-.4.389,1.063,1.063,0,0,0,0,1.085,1.11,1.11,0,0,0,.4.393,1.07,1.07,0,0,0,.546.146,1.049,1.049,0,0,0,.542-.146,1.107,1.107,0,0,0,.395-.393,1.074,1.074,0,0,0,0-1.085,1.1,1.1,0,0,0-.395-.389,1.06,1.06,0,0,0-.542-.144A1.082,1.082,0,0,0,977.3,555.947Z" transform="translate(-935.595 -555.46)" fill="#b3b3b3"/>
      <path id="Tracé_45607" data-name="Tracé 45607" d="M993.309,555.513h.383v2.8H993.3l-1.612-2.166v2.166H991.3v-2.8h.391l1.616,2.17Z" transform="translate(-943.892 -555.49)" fill="#b3b3b3"/>
      <path id="Tracé_45608" data-name="Tracé 45608" d="M1004.691,555.513h2.2v.352h-.911v2.446h-.387v-2.446h-.907Z" transform="translate(-951.328 -555.49)" fill="#b3b3b3"/>
      <path id="Tracé_45609" data-name="Tracé 45609" d="M1019.566,555.761a.867.867,0,0,1,.288.7.92.92,0,0,1-.29.725,1.184,1.184,0,0,1-.814.258h-.7v.871h-.387v-2.8h1.088A1.213,1.213,0,0,1,1019.566,555.761Zm-.276,1.173a.566.566,0,0,0,.194-.465.546.546,0,0,0-.194-.454.877.877,0,0,0-.556-.154l-.685,0v1.227h.685A.857.857,0,0,0,1019.29,556.934Z" transform="translate(-958.532 -555.49)" fill="#b3b3b3"/>
      <path id="Tracé_45610" data-name="Tracé 45610" d="M1030.761,555.513h1.958v.348h-1.572v.863h1.407v.348h-1.407v.891h1.62v.348h-2.007Z" transform="translate(-965.807 -555.49)" fill="#b3b3b3"/>
      <path id="Tracé_45611" data-name="Tracé 45611" d="M1043.7,555.513h.387v2.45h1.234v.348h-1.62Z" transform="translate(-972.991 -555.49)" fill="#b3b3b3"/>
      <path id="Tracé_45612" data-name="Tracé 45612" d="M1055.462,555.513h.387v2.45h1.233v.348h-1.62Z" transform="translate(-979.526 -555.49)" fill="#b3b3b3"/>
      <path id="Tracé_45613" data-name="Tracé 45613" d="M1067.228,555.513h.387v2.8h-.387Z" transform="translate(-986.06 -555.49)" fill="#b3b3b3"/>
      <path id="Tracé_45614" data-name="Tracé 45614" d="M1076.928,555.513h1.958v.348h-1.571v.863h1.406v.348h-1.406v.891h1.62v.348h-2.007Z" transform="translate(-991.448 -555.49)" fill="#b3b3b3"/>
      <path id="Tracé_45615" data-name="Tracé 45615" d="M1091.685,558.311l-.56-.879c-.064.005-.117.008-.156.008h-.718v.871h-.386v-2.8h1.1a1.252,1.252,0,0,1,.828.246.861.861,0,0,1,.292.7.986.986,0,0,1-.159.571.89.89,0,0,1-.458.336l.657.947Zm-.717-1.219a.857.857,0,0,0,.556-.158.566.566,0,0,0,.194-.465.545.545,0,0,0-.194-.454.876.876,0,0,0-.556-.154h-.718v1.231Z" transform="translate(-998.632 -555.49)" fill="#b3b3b3"/>
    </g>
  </g>
</svg>
