<?xml version="1.0" encoding="utf-8"?>
<!-- Generator: Adobe Illustrator 26.1.0, SVG Export Plug-In . SVG Version: 6.00 Build 0)  -->
<svg version="1.1" id="Calque_1" xmlns="http://www.w3.org/2000/svg" xmlns:xlink="http://www.w3.org/1999/xlink" x="0px" y="0px"
	 viewBox="0 0 50.6 23" style="enable-background:new 0 0 50.6 23;" xml:space="preserve">
<style type="text/css">
	.st0{enable-background:new    ;}
	.st1{fill:#FFFFFF;}
	.st2{fill:#E5A439;}
</style>
<g id="Groupe_1423" transform="translate(-240.527 -143.107)">
	<g class="st0">
		<path class="st1" d="M241.6,156.6v-4.3c0-2.8,2.1-4.8,4.8-4.8h1.3c3,0,4.8,2.3,4.8,4.7h-1.6c0-1.9-1.3-3.1-3.2-3.1h-1.1
			c-2,0-3.3,1.3-3.3,3.2v4.2c0,2,1.3,3.3,3.3,3.3h1.1c2,0,3.2-1.3,3.2-3.2h1.7c0,2.7-1.9,4.8-4.8,4.8h-1.3
			C243.6,161.4,241.6,159.4,241.6,156.6z"/>
		<path class="st1" d="M256,147.7V158c0,1.1,0.6,1.7,1.8,1.7h0.8v1.5h-1.2c-2,0-3.1-1-3.1-3.2v-10.2H256z"/>
		<path class="st1" d="M259.8,148h1.6v2h-1.6V148z M259.8,151.5h1.6v9.7h-1.6V151.5z"/>
		<path class="st1" d="M267.4,151.3h0.6c2.5,0,3.9,1.4,3.9,3.9v6h-1.6v-5.9c0-1.5-0.9-2.4-2.4-2.4h-0.5c-1.5,0-2.4,0.9-2.4,2.4v5.9
			h-1.6v-6C263.5,152.7,264.9,151.3,267.4,151.3z"/>
		<path class="st1" d="M273.8,148h1.6v2h-1.6V148z M273.8,151.5h1.6v9.7h-1.6V151.5z"/>
	</g>
	<g class="st0">
		<path class="st2" d="M278.2,156.5v-4.3c0-2.8,2.1-4.8,4.8-4.8h1.7c2.8,0,4.8,2.1,4.8,4.8v4.3c0,2.8-2.1,4.8-4.8,4.8h-0.1v1.8h-1.6
			v-1.8H283C280.2,161.4,278.2,159.3,278.2,156.5z M283.1,159.7v-3.1h1.6v3.1c1.9,0,3.2-1.3,3.2-3.3v-4.2c0-2-1.3-3.3-3.3-3.3h-1.4
			c-2,0-3.3,1.3-3.3,3.3v4.2C279.8,158.4,281.1,159.7,283.1,159.7z"/>
	</g>
</g>
</svg>
